<svg width="38" height="62" viewBox="0 0 38 62" fill="none" xmlns="http://www.w3.org/2000/svg">
<path d="M2.11014 25.8619L25.6818 2.12492C28.4953 -0.708307 33.0731 -0.708307 35.8865 2.12492C37.2494 3.49739 38 5.32215 38 7.26304V54.737C38 56.6779 37.2494 58.5026 35.8865 59.8752C34.4798 61.2916 32.632 62 30.7841 62C28.9364 62 27.0886 61.2916 25.6818 59.8752C24.7424 58.9293 24.7425 57.3958 25.6818 56.4498C26.6211 55.5038 28.1439 55.5038 29.0833 56.4498C30.0212 57.3942 31.547 57.3942 32.4848 56.4498C32.939 55.9923 33.1894 55.384 33.1894 54.737V7.26304C33.1894 6.61604 32.9392 6.0079 32.4848 5.55029C31.547 4.60588 30.0212 4.60588 29.0833 5.55029L5.51165 29.2873C4.57382 30.2317 4.57382 31.7683 5.51165 32.7127L20.751 48.0589C21.6904 49.0047 21.6902 50.5382 20.751 51.4842C19.8117 52.4302 18.2888 52.4302 17.3494 51.4842L2.11002 36.1382C-0.703357 33.3049 -0.703356 28.6951 2.11014 25.8619Z" fill="#020202"/>
</svg>
