<svg width="119" height="120" viewBox="0 0 119 120" fill="none" xmlns="http://www.w3.org/2000/svg">
<path d="M108.318 105.076H10.6816V97.8693C20.2949 97.8693 28.1167 90.0474 28.1167 80.4341V52.5379C28.1167 38.1811 37.8014 25.6938 51.6679 22.1694C56.4626 20.8141 62.4526 20.7936 67.4174 22.1898C81.1986 25.6938 90.8833 38.1811 90.8833 52.5379V80.4341C90.8833 90.0474 98.7051 97.8693 108.318 97.8693V105.076Z" fill="#6A6A6A"/>
<path d="M109.821 74.7303L104.89 69.7994C114.408 60.2817 114.408 44.7944 104.89 35.2764L109.821 30.3455C122.06 42.5808 122.06 62.495 109.821 74.7303Z" fill="#6A6A6A"/>
<path d="M9.17891 74.7303C-3.05964 62.495 -3.05964 42.5808 9.17891 30.3455L14.1098 35.2764C4.59207 44.7941 4.59207 60.2814 14.1098 69.7994L9.17891 74.7303Z" fill="#6A6A6A"/>
<path d="M19.2766 64.865C15.9837 61.5756 14.1686 57.1964 14.1686 52.5379C14.1686 47.8795 15.9837 43.5002 19.2766 40.2108L24.2075 45.1417C22.2325 47.1167 21.1427 49.7422 21.1427 52.5379C21.1427 55.3336 22.2325 57.9591 24.2075 59.9341L19.2766 64.865Z" fill="#6A6A6A"/>
<path d="M99.7233 64.865L94.7924 59.9341C96.7677 57.9591 97.8573 55.3336 97.8573 52.5379C97.8573 49.7422 96.7675 47.1167 94.7924 45.1417L99.7233 40.2108C103.016 43.5002 104.831 47.8795 104.831 52.5379C104.831 57.1964 103.016 61.5756 99.7233 64.865Z" fill="#6A6A6A"/>
<path d="M49.9481 15.4099C52.7438 14.6165 56.1015 14.1738 59.4795 14.1738C62.878 14.1738 66.2765 14.6234 69.3039 15.4747C69.532 15.5326 69.7351 15.6407 69.9611 15.7028V10.4611C69.9611 4.69261 65.2685 0 59.5 0C53.7315 0 49.0389 4.69261 49.0389 10.4611V15.7244C49.3509 15.6368 49.6326 15.4899 49.9481 15.4099Z" fill="#6A6A6A"/>
<path d="M47.4916 112.05C49.9107 116.199 54.3592 119.024 59.5 119.024C64.6408 119.024 69.0893 116.199 71.5084 112.05H47.4916Z" fill="#6A6A6A"/>
</svg>
