<svg width="49" height="49" viewBox="0 0 49 49" fill="none" xmlns="http://www.w3.org/2000/svg">
<path d="M24.5 0C10.9595 0 0 10.9576 0 24.5C0 28.7973 1.12077 32.9944 3.24905 36.6962L0.0923386 46.499C-0.127853 47.1824 0.0530854 47.9316 0.56076 48.4392C1.06358 48.9421 1.81088 49.1297 2.50099 48.9077L12.3038 45.751C16.0056 47.8792 20.2027 49 24.5 49C38.0405 49 49 38.0424 49 24.5C49 10.9595 38.0424 0 24.5 0ZM24.5 45.1719C20.6184 45.1719 16.8348 44.0889 13.5581 42.0398C13.0867 41.7453 12.5012 41.6656 11.9565 41.841L4.88011 44.1199L7.15904 37.0435C7.33176 36.5066 7.25886 35.9204 6.95979 35.4419C4.91114 32.1652 3.82812 28.3816 3.82812 24.5C3.82812 13.1016 13.1016 3.82812 24.5 3.82812C35.8984 3.82812 45.1719 13.1016 45.1719 24.5C45.1719 35.8984 35.8984 45.1719 24.5 45.1719ZM26.8926 24.5C26.8926 25.8212 25.8215 26.8926 24.5 26.8926C23.1785 26.8926 22.1074 25.8212 22.1074 24.5C22.1074 23.1785 23.1785 22.1074 24.5 22.1074C25.8215 22.1074 26.8926 23.1785 26.8926 24.5ZM36.4629 24.5C36.4629 25.8212 35.3918 26.8926 34.0703 26.8926C32.7488 26.8926 31.6777 25.8212 31.6777 24.5C31.6777 23.1785 32.7488 22.1074 34.0703 22.1074C35.3918 22.1074 36.4629 23.1785 36.4629 24.5ZM17.3223 24.5C17.3223 25.8212 16.2512 26.8926 14.9297 26.8926C13.6085 26.8926 12.5371 25.8212 12.5371 24.5C12.5371 23.1785 13.6085 22.1074 14.9297 22.1074C16.2512 22.1074 17.3223 23.1785 17.3223 24.5Z" fill="#8D8D8D"/>
</svg>
