<svg width="36" height="117" viewBox="0 0 36 117" fill="none" xmlns="http://www.w3.org/2000/svg">
<path d="M35.7126 99.2126C35.7126 89.5476 27.8776 81.7126 18.2126 81.7126C8.54764 81.7126 0.712624 89.5476 0.712624 99.2126C0.712624 108.878 8.54764 116.713 18.2126 116.713C27.8776 116.713 35.7126 108.878 35.7126 99.2126Z" fill="#010002"/>
<path d="M35.7126 17.7874C35.7126 8.12239 27.8776 0.287376 18.2126 0.287376C8.54764 0.287376 0.712624 8.12239 0.712624 17.7874C0.712624 27.4524 8.54764 35.2874 18.2126 35.2874C27.8776 35.2874 35.7126 27.4524 35.7126 17.7874Z" fill="#010002"/>
<path d="M35.7126 58.5C35.7126 48.835 27.8776 41 18.2126 41C8.54764 41 0.712624 48.835 0.712624 58.5C0.712624 68.165 8.54764 76 18.2126 76C27.8776 76 35.7126 68.165 35.7126 58.5Z" fill="#010002"/>
</svg>
