<svg width="144" height="178" viewBox="0 0 144 178" fill="none" xmlns="http://www.w3.org/2000/svg">
<path d="M106.927 112.628C107.054 115.453 109.219 117.842 112.142 117.842C114.869 117.842 117.482 115.444 117.356 112.628C117.229 109.803 115.065 107.414 112.142 107.414C109.414 107.414 106.801 109.812 106.927 112.628Z" fill="white"/>
<path d="M108.793 96.9692C111.521 96.9692 114.134 94.571 114.008 91.755C113.881 88.9299 111.716 86.5408 108.793 86.5408C106.066 86.5408 103.453 88.939 103.579 91.755C103.706 94.58 105.87 96.9692 108.793 96.9692Z" fill="white"/>
<path d="M91.8344 109.139C94.5618 109.139 97.1748 106.741 97.0486 103.925C96.9221 101.1 94.7575 98.7111 91.8344 98.7111C89.1071 98.7111 86.4941 101.109 86.6202 103.925C86.7468 106.75 88.9113 109.139 91.8344 109.139Z" fill="white"/>
<path d="M126.085 142.841C162.027 108.197 139.597 46.2401 90.1635 42.1532V32.5678C90.1635 27.8795 93.9778 24.0652 98.6661 24.0652C101.546 24.0652 103.88 21.7306 103.88 18.851C103.88 15.9714 101.546 13.6368 98.6661 13.6368C94.3699 13.6368 90.4051 15.0777 87.2244 17.4984C82.3161 7.16359 71.7769 0 59.5952 0H57.5828C54.7032 0 52.3686 2.33456 52.3686 5.21418V21.7793C52.3686 31.494 56.9245 40.1638 64.0109 45.7673C61.1712 46.8466 58.4115 48.1422 55.7655 49.6564C49.5808 53.1954 44.0837 57.8524 39.5574 63.3321C38.6442 60.9371 37.8284 58.54 37.1206 56.1491C35.4306 50.4409 30.9404 46.3071 25.3032 45.0345C25.9341 41.395 26.8991 37.84 28.1936 34.4345C29.2166 31.7425 27.8641 28.7308 25.1722 27.7075C22.4813 26.6841 19.4689 28.0367 18.4455 30.7289C16.5663 35.6726 15.2718 40.8747 14.5832 46.1966C11.0692 47.8766 8.22991 50.8233 6.66983 54.6634C-14.7966 106.054 17.7736 166.273 72.576 176.344C89.624 179.646 107.263 177.96 123.401 171.395C135.493 166.702 136.912 149.612 126.085 142.841V142.841ZM62.797 10.6825C72.3862 12.2207 79.7355 20.5526 79.7355 30.5683V41.6651C70.1462 40.1269 62.797 31.795 62.797 21.7793V10.6825ZM60.9449 58.7079C92.6552 40.2225 133.679 64.01 133.36 100.76C133.361 115.626 126.706 129.393 115.084 138.644C86.6317 128.2 58.2186 101.965 44.4268 74.2632C48.6197 67.8667 54.3045 62.5073 60.9449 58.7079V58.7079ZM119.476 161.735C105.235 167.521 89.7015 169.032 74.5546 166.105C26.1236 157.2 -2.63054 103.981 16.3314 58.5897C17.7621 55.2627 20.4756 55.0412 21.9192 55.0576C22.8717 55.1045 26.0631 55.5349 27.1216 59.1094C38.3727 99.0861 78.9811 139.693 118.957 150.944C122.531 152.002 122.961 155.193 123.008 156.146C123.055 157.102 122.939 160.328 119.476 161.735Z" fill="white"/>
</svg>
