<svg width="149" height="132" viewBox="0 0 149 132" fill="none" xmlns="http://www.w3.org/2000/svg">
<path d="M64.8887 92.9582L48.3533 51.6264L42.4376 69.3768H8.79767C17.8129 83.3761 33.4495 96.7442 53.1884 113.563C58.833 118.373 64.8379 123.488 71.1477 129.01L74.0011 131.509L76.8556 129.01C83.1642 123.488 89.1691 118.373 94.8138 113.563C114.553 96.7442 130.189 83.375 139.204 69.3768H76.6817L64.8887 92.9582Z" fill="white"/>
<path d="M108.995 0C91.2354 0.063233 79.9292 12.1701 74.0011 23.2765C68.1023 12.2378 56.8435 0 39.3042 0C39.2026 0 39.1055 0 39.0084 0C18.373 0.164857 1.10356 17.7673 0.0534437 40.0739C-0.296596 47.4948 1.08437 54.2415 3.85759 60.7048H36.1877L47.616 26.4224L65.7695 71.8067L71.3204 60.7048H144.143C146.918 54.2415 148.299 47.4948 147.948 40.0739C146.899 17.7673 129.629 0.164857 108.995 0Z" fill="white"/>
</svg>
