<svg width="92" height="92" viewBox="0 0 92 92" fill="none" xmlns="http://www.w3.org/2000/svg">
<path d="M37.3982 0.179718H3.59726C1.61298 0.179718 0.00421287 1.78848 0.00421287 3.77347V37.566C0.00421287 39.5509 1.61298 41.1597 3.59726 41.1597H37.3982C39.3824 41.1597 40.9912 39.5502 40.9912 37.566V3.77347C40.9919 1.78848 39.3824 0.179718 37.3982 0.179718ZM33.8044 33.9722H7.19101V7.36722H33.8044V33.9722ZM37.3982 50.8383H3.59726C0.406404 50.8383 -1.20517 54.7114 1.05707 56.9729L34.8573 90.7654C37.1062 93.0136 40.9919 91.4357 40.9919 88.2245V54.4313C40.9919 52.447 39.3824 50.8383 37.3982 50.8383ZM33.8044 79.5497L12.2749 58.0251H33.8044V79.5497ZM88.4062 0.179718H54.606C52.6218 0.179718 51.0123 1.78848 51.0123 3.77347V37.566C51.0123 39.5509 52.6218 41.1597 54.606 41.1597H88.4062C90.3912 41.1597 92 39.5502 92 37.566V3.77347C92 1.78848 90.3912 0.179718 88.4062 0.179718ZM84.8132 33.9722H58.1998V7.36722H84.8132V33.9722ZM88.4062 50.8383H54.606C52.6218 50.8383 51.0123 52.447 51.0123 54.4313V88.2238C51.0123 90.2088 52.6218 91.8175 54.606 91.8175H88.4062C90.3912 91.8175 92 90.2088 92 88.2238V54.4313C92 52.447 90.3912 50.8383 88.4062 50.8383ZM84.8132 84.6307H58.1998V58.0251H84.8132V84.6307Z" fill="#6A6A6A"/>
</svg>
