<svg width="38" height="62" viewBox="0 0 38 62" fill="none" xmlns="http://www.w3.org/2000/svg">
<path d="M35.8899 25.8619L12.3182 2.12492C9.50469 -0.708307 4.92689 -0.708307 2.11352 2.12492C0.750601 3.49739 0 5.32215 0 7.26304V54.737C0 56.6779 0.750601 58.5026 2.11352 59.8752C3.5202 61.2916 5.36797 62 7.21585 62C9.06362 62 10.9114 61.2916 12.3182 59.8752C13.2576 58.9293 13.2575 57.3958 12.3182 56.4498C11.3789 55.5038 9.85606 55.5038 8.91667 56.4498C7.97884 57.3942 6.45298 57.3942 5.51515 56.4498C5.06097 55.9923 4.81061 55.384 4.81061 54.737V7.26304C4.81061 6.61604 5.06085 6.0079 5.51515 5.55029C6.45298 4.60588 7.97884 4.60588 8.91667 5.55029L32.4883 29.2873C33.4262 30.2317 33.4262 31.7683 32.4883 32.7127L17.249 48.0589C16.3096 49.0047 16.3098 50.5382 17.249 51.4842C18.1883 52.4302 19.7112 52.4302 20.6506 51.4842L35.89 36.1382C38.7034 33.3049 38.7034 28.6951 35.8899 25.8619Z" fill="#020202"/>
</svg>
