<svg width="109" height="109" viewBox="0 0 109 109" fill="none" xmlns="http://www.w3.org/2000/svg">
<path d="M109 54.5C109 56.9461 108.838 59.3539 108.525 61.7149C104.996 88.4028 5.5458 89.7653 0.89627 64.3866C0.306563 61.1805 0 57.8764 0 54.5C0 24.4015 24.4015 0 54.5 0C84.5985 0 109 24.4015 109 54.5Z" fill="white"/>
<path d="M14.1651 10.5117C13.3819 11.2466 12.624 12.007 11.8914 12.7928C8.59971 16.3234 8.59971 21.8324 11.8914 25.3629C14.2034 27.8427 16.7681 30.0699 19.5853 32.0445C20.1716 32.4556 20.9544 32.4556 21.5409 32.0445C26.2398 28.7511 30.2362 24.7547 33.5296 20.0558C33.9407 19.4695 33.9407 18.6867 33.5296 18.1002C31.5851 15.3258 29.3955 12.7962 26.9609 10.5119C23.3541 7.12715 17.7721 7.12715 14.1651 10.5117Z" fill="#2F373B"/>
<path d="M97.3917 10.5117C98.1749 11.2466 98.9328 12.007 99.6654 12.7928C102.957 16.3234 102.957 21.8324 99.6654 25.3629C97.3534 27.8427 94.7887 30.0699 91.9715 32.0445C91.3852 32.4556 90.6024 32.4556 90.0159 32.0445C85.317 28.7511 81.3206 24.7547 78.0272 20.0558C77.6161 19.4695 77.6161 18.6867 78.0272 18.1002C79.9717 15.3258 82.1613 12.7962 84.5959 10.5119C88.2029 7.12715 93.7849 7.12715 97.3917 10.5117Z" fill="#2F373B"/>
<path d="M93.6529 15.3645C94.044 15.7313 94.4223 16.1109 94.7878 16.5031C96.4309 18.2654 96.4309 21.0153 94.7878 22.7776C93.6338 24.0153 92.3537 25.127 90.9475 26.1127C90.6548 26.318 90.2641 26.318 89.9714 26.1127C87.6258 24.4688 85.6312 22.474 83.987 20.1284C83.7818 19.8356 83.7818 19.445 83.987 19.1523C84.9576 17.7674 86.0506 16.5048 87.2658 15.3645C89.0662 13.675 91.8525 13.675 93.6529 15.3645Z" fill="#181E21"/>
<path d="M17.9041 15.3645C17.513 15.7313 17.1347 16.1109 16.7692 16.5031C15.1261 18.2654 15.1261 21.0153 16.7692 22.7776C17.9233 24.0153 19.2034 25.127 20.6095 26.1127C20.9022 26.318 21.2929 26.318 21.5856 26.1127C23.9312 24.4688 25.9258 22.474 27.57 20.1284C27.7752 19.8356 27.7752 19.445 27.57 19.1523C26.5994 17.7674 25.5064 16.5048 24.2912 15.3645C22.4906 13.675 19.7045 13.675 17.9041 15.3645Z" fill="#181E21"/>
<path d="M108.525 61.7149C104.996 88.4028 82.1524 109 54.5 109C27.778 109 5.5458 89.7653 0.896271 64.3866C13.6974 47.6321 33.5239 35.7997 55.7795 35.7997C76.8322 35.7997 95.7092 46.3889 108.525 61.7149Z" fill="#2F373B"/>
<path d="M102.962 54.0776C102.962 30.3659 81.8375 6.32945 55.7786 6.32945C29.7197 6.32945 8.5946 30.3659 8.5946 54.0776C8.5946 77.7894 29.7195 85.3366 55.7784 85.3366C81.8373 85.3366 102.962 77.7896 102.962 54.0776Z" fill="#BCBCBC"/>
<path d="M82.8615 81.4511C75.1974 84.2081 65.8579 85.3364 55.7797 85.3364C29.7197 85.3364 8.5946 77.7894 8.5946 54.0776C8.5946 30.3659 29.7197 6.33052 55.7797 6.33052C55.9287 6.33052 56.0756 6.33052 56.2225 6.33265C38.5504 13.8477 26.0112 32.3074 26.0112 50.5756C26.0112 74.2873 47.1363 81.8343 73.1941 81.8343C76.5067 81.8343 79.7405 81.713 82.8615 81.4511Z" fill="#D9D9D9"/>
<path d="M39.2951 50.364C30.3927 59.2664 24.9284 68.2357 17.7955 61.1028C10.6626 53.9699 12.0969 40.9706 20.9993 32.0683C29.9018 23.1661 42.9009 21.7317 50.0338 28.8646C57.1667 35.9975 48.1976 41.4617 39.2951 50.364Z" fill="#545F63"/>
<path d="M72.2617 50.364C81.1641 59.2664 86.6284 68.2357 93.7613 61.1028C100.894 53.9699 99.4599 40.9706 90.5575 32.0683C81.6551 23.1661 68.656 21.7317 61.5231 28.8646C54.3902 35.9975 63.3594 41.4617 72.2617 50.364Z" fill="#545F63"/>
<path d="M43.6726 60.7473C42.7908 60.7473 42.0759 60.0324 42.0759 59.1506C42.0759 58.2688 42.7908 57.5539 43.6726 57.5539C53.6138 57.5539 54.1647 47.412 54.1832 46.9803C54.2213 46.1011 54.9626 45.417 55.8429 45.4515C56.7224 45.4871 57.4073 46.2254 57.374 47.1051C57.3689 47.2432 57.2267 50.5271 55.5112 53.8333C53.8745 56.9872 50.4921 60.7473 43.6726 60.7473Z" fill="#D1D1D1"/>
<path d="M67.8844 60.7468C61.0649 60.7468 57.6825 56.9868 56.0458 53.8326C54.3303 50.5264 54.1881 47.2426 54.183 47.1044C54.1498 46.2232 54.8372 45.482 55.7184 45.4487C56.6004 45.4147 57.3389 46.101 57.374 46.9807C57.3932 47.4229 57.9488 57.5537 67.8844 57.5537C68.7662 57.5537 69.4811 58.2686 69.4811 59.1504C69.4811 60.0322 68.7662 60.7468 67.8844 60.7468Z" fill="#D1D1D1"/>
<path d="M72.2025 45.5784C75.3933 45.5784 77.9799 42.9918 77.9799 39.801C77.9799 36.6102 75.3933 34.0235 72.2025 34.0235C69.0117 34.0235 66.4251 36.6102 66.4251 39.801C66.4251 42.9918 69.0117 45.5784 72.2025 45.5784Z" fill="#2F373B"/>
<path d="M74.6103 41.2571C75.9776 41.2571 77.086 40.1487 77.086 38.7814C77.086 37.4141 75.9776 36.3057 74.6103 36.3057C73.243 36.3057 72.1346 37.4141 72.1346 38.7814C72.1346 40.1487 73.243 41.2571 74.6103 41.2571Z" fill="white"/>
<path d="M39.3543 45.5788C42.5451 45.5788 45.1318 42.9922 45.1318 39.8014C45.1318 36.6106 42.5451 34.024 39.3543 34.024C36.1635 34.024 33.5769 36.6106 33.5769 39.8014C33.5769 42.9922 36.1635 45.5788 39.3543 45.5788Z" fill="#2F373B"/>
<path d="M40.7055 45.4183C40.2727 45.5245 39.8191 45.579 39.355 45.579C36.164 45.579 33.5769 42.992 33.5769 39.801C33.5769 36.61 36.164 34.0229 39.355 34.0229C39.8191 34.0229 40.2725 34.0774 40.7055 34.1836C38.1651 34.7902 36.2806 37.0766 36.2806 39.801C36.2806 42.5253 38.1651 44.8118 40.7055 45.4183Z" fill="#181E21"/>
<path d="M73.5537 45.4183C73.1209 45.5245 72.6672 45.579 72.2031 45.579C69.0121 45.579 66.4251 42.992 66.4251 39.801C66.4251 36.61 69.0121 34.0229 72.2031 34.0229C72.6672 34.0229 73.1207 34.0774 73.5537 34.1836C71.0133 34.7902 69.1288 37.0766 69.1288 39.801C69.129 42.5253 71.0135 44.8118 73.5537 45.4183Z" fill="#181E21"/>
<path d="M41.7619 41.2571C43.1292 41.2571 44.2376 40.1487 44.2376 38.7814C44.2376 37.4141 43.1292 36.3057 41.7619 36.3057C40.3946 36.3057 39.2862 37.4141 39.2862 38.7814C39.2862 40.1487 40.3946 41.2571 41.7619 41.2571Z" fill="white"/>
<path d="M60.366 48.6246L63.0416 43.9902C65.1435 40.3498 62.5162 35.799 58.3124 35.799H52.961C48.7573 35.799 46.13 40.3496 48.2319 43.9902L50.9075 48.6246C53.0096 52.2653 58.2641 52.2653 60.366 48.6246Z" fill="#2F373B"/>
</svg>
