<svg width="192" height="192" viewBox="0 0 192 192" fill="none" xmlns="http://www.w3.org/2000/svg">
<path d="M192 96C192 149.02 149.02 192 96 192C42.98 192 0 149.02 0 96C0 42.98 42.98 0 96 0C149.02 0 192 42.98 192 96Z" fill="url(#paint0_linear)"/>
<path d="M132.425 64.2935C132.425 44.2471 116.115 27.9375 96.0674 27.9375C76.021 27.9375 59.7114 44.2471 59.7114 64.2935C59.7114 76.1572 65.4229 86.71 74.2412 93.3516C50.6309 102.214 33.7808 125.019 33.7808 151.688H45.0308C45.0308 123.545 67.9263 100.651 96.0674 100.651C116.115 100.651 132.425 84.3413 132.425 64.2935V64.2935ZM96.0674 89.4009C82.2231 89.4009 70.9614 78.1377 70.9614 64.2935C70.9614 50.4492 82.2231 39.1875 96.0674 39.1875C109.912 39.1875 121.175 50.4492 121.175 64.2935C121.175 78.1377 109.912 89.4009 96.0674 89.4009Z" fill="white"/>
<path d="M158.594 121.093H138.426V100.925H127.176V121.093H107.008V132.343H127.176V152.511H138.426V132.343H158.594V121.093Z" fill="white"/>
<defs>
<linearGradient id="paint0_linear" x1="0" y1="96" x2="192" y2="96" gradientUnits="userSpaceOnUse">
<stop stop-color="#00F38D"/>
<stop offset="1" stop-color="#009EFF"/>
</linearGradient>
</defs>
</svg>
