<svg width="129" height="129" viewBox="0 0 129 129" fill="none" xmlns="http://www.w3.org/2000/svg">
<path d="M97.2685 64.5C97.2685 62.4128 98.9606 60.7207 101.048 60.7207H109.006C107.186 39.0996 89.9004 21.8139 68.2793 19.9937V27.9524C68.2793 30.0396 66.5872 31.7317 64.5 31.7317C62.4128 31.7317 60.7207 30.0396 60.7207 27.9524V19.9937C39.0996 21.8139 21.8139 39.0996 19.9937 60.7207H27.9522C30.0394 60.7207 31.7315 62.4128 31.7315 64.5C31.7315 66.5872 30.0394 68.2793 27.9522 68.2793H19.9937C21.8139 89.9004 39.0996 107.186 60.7207 109.006V101.048C60.7207 98.9604 62.4128 97.2683 64.5 97.2683C66.5872 97.2683 68.2793 98.9604 68.2793 101.048V109.006C89.9004 107.186 107.186 89.9004 109.006 68.2793H101.048C98.9606 68.2793 97.2685 66.5872 97.2685 64.5ZM87.3247 46.4529L67.2092 67.1349C65.8089 68.5746 63.5262 68.6683 62.0127 67.3453L46.9968 54.2183C45.4254 52.8447 45.2651 50.4569 46.639 48.8857C48.0127 47.3143 50.4002 47.1535 51.9719 48.5277L64.2896 59.2959L81.9064 41.1827C83.3617 39.6866 85.7545 39.6536 87.2506 41.1084C88.7467 42.5642 88.78 44.9568 87.3247 46.4529Z" fill="white"/>
<path d="M64.5 0C28.9345 0 0 28.9345 0 64.5C0 100.065 28.9345 129 64.5 129C100.065 129 129 100.065 129 64.5C129 28.9345 100.065 0 64.5 0ZM64.5 116.726C35.7023 116.726 12.2736 93.2977 12.2736 64.5C12.2736 35.7023 35.7023 12.2736 64.5 12.2736C93.2977 12.2736 116.726 35.7023 116.726 64.5C116.726 93.2977 93.2977 116.726 64.5 116.726Z" fill="white"/>
</svg>
