<svg width="119" height="119" viewBox="0 0 119 119" fill="none" xmlns="http://www.w3.org/2000/svg">
<path d="M119 59.5C119 76.0415 112.248 91.0071 101.352 101.791C90.6027 112.429 75.8183 105.118 59.5 105.118C43.1817 105.118 28.3973 112.429 17.6478 101.791C6.75186 91.0071 0 76.0415 0 59.5C0 26.6402 26.6402 0 59.5 0C92.3598 0 119 26.6402 119 59.5Z" fill="#5B5B5B"/>
<path d="M17.6478 101.791C28.3973 112.429 43.1817 105.118 59.5 105.118C75.8183 105.118 90.6027 112.429 101.352 101.791C112.248 91.0071 119 76.0415 119 59.5C119 50.7017 117.09 42.3491 113.662 34.8347L101.609 22.7815C101.609 22.7815 91.3611 25.2043 88.9516 25.9318L74.0636 11.1479C74.0636 11.1479 56.8827 24.7567 54.6577 30.2534C52.4327 35.7504 22.6056 34.1321 22.6056 34.1321L47.1563 58.8269C47.1563 58.8269 53.2158 60.7197 54.5924 61.9923L41.6223 88.2366L17.6478 101.791Z" fill="#3F3F3F"/>
<path d="M94.0944 21.5883C81.2486 26.4819 65.3445 29.1327 59.5 29.1327C53.6555 29.1327 37.7514 26.4819 24.9056 21.5883C12.0599 16.6946 15.3591 34.0872 32.5405 39.7806C47.9228 44.8779 59.4986 43.6096 59.4998 43.6093C59.5012 43.6096 71.0769 44.8776 86.4591 39.7806C103.641 34.0875 106.94 16.6949 94.0944 21.5883V21.5883Z" fill="white"/>
<path d="M59.5 29.1327C65.3445 29.1327 81.2486 26.4819 94.0944 21.5883C106.94 16.6946 103.641 34.0872 86.4595 39.7806C71.0762 44.8783 59.5 43.6096 59.5 43.6096V29.1327Z" fill="#DDD9D0"/>
<path d="M48.6438 59.5H70.3562V77.3702H48.6438V59.5Z" fill="#FFB578"/>
<path d="M59.5 59.5005H70.3562V77.3709H59.5V59.5005Z" fill="#F5A360"/>
<path d="M75.5748 39.3451C75.5748 39.3451 67.8625 21.4381 59.5 21.4381C51.1375 21.4381 40.4502 37.5712 40.4502 37.5712C38.2878 37.9745 36.7517 40.7092 36.9934 42.9202L37.3641 47.9521C37.6177 50.274 39.7346 51.9691 42.0677 51.7169L42.47 51.6748C47.2488 64.0471 54.743 65.3371 59.5002 66.0613C64.2572 65.3371 70.8076 63.5888 75.5864 51.2167C75.5861 51.2167 77.7372 39.7483 75.5748 39.3451V39.3451Z" fill="#FFD097"/>
<path d="M47.4029 33.0016L44.8653 43.7497L40.7873 40.5699L40.4502 34.8101L47.4029 33.0016Z" fill="#5B5B5B"/>
<path d="M82.0068 42.9202L81.6361 47.9521C81.3823 50.274 79.2656 51.9691 76.9326 51.7169L76.5303 51.6748C74.897 55.8984 72.9486 58.8318 70.901 60.8899C66.9526 64.8611 62.6337 65.5834 59.5 66.0613V21.4381C67.8625 21.4381 78.55 37.5712 78.55 37.5712C80.7125 37.9745 82.2485 40.7092 82.0068 42.9202V42.9202Z" fill="#FFB578"/>
<path d="M71.7189 33.0016L74.2567 43.7497L78.3348 40.5699L78.7206 34.8101L71.7189 33.0016Z" fill="#3F3F3F"/>
<path d="M78.6511 35.8494H38.1132L43.9266 26.5093L42.711 18.8185L43.2179 15.2241C43.6186 11.3956 47.1189 8.24539 50.8725 7.38612L54.3195 6.59914C57.7303 5.81937 61.2692 5.81937 64.6802 6.59914L68.1273 7.38612C71.8809 8.24539 75.3812 11.3956 75.7819 15.2241L76.2888 18.8185L75.2196 26.5117L78.6511 35.8494Z" fill="white"/>
<path d="M80.7043 35.8494H59.5V6.01508C61.2381 6.01508 62.9761 6.20822 64.6802 6.59915L68.1273 7.38613C71.8809 8.2454 75.3812 11.3956 75.7819 15.2241L76.2899 18.8183L75.2196 26.5117L80.7043 35.8494Z" fill="#DDD9D0"/>
<path d="M77.3777 26.5119C69.7303 28.233 62.9061 28.0175 59.5 28.0175C56.0939 28.0175 49.2674 28.233 41.6223 26.5096L42.711 18.8187H76.2888L77.3777 26.5119Z" fill="#1CE890"/>
<path d="M77.3779 26.5124C69.7312 28.2323 62.905 28.0185 59.5 28.0185V18.8192H76.2878L77.3779 26.5124Z" fill="#00BC6F"/>
<path d="M101.352 91.1651V101.791C96.816 106.281 91.5612 110.045 85.776 112.898C77.8518 116.805 68.9321 110.418 59.5 110.418C49.9596 110.418 40.9437 116.754 32.9516 112.762C27.2738 109.927 22.1126 106.21 17.6478 101.791V91.1649C17.6478 86.814 20.3764 82.9302 24.4694 81.4543L41.6223 88.2364L45.4966 75.2766L48.6436 72.7315C55.579 75.6949 63.4233 75.6949 70.3564 72.7315L73.2431 75.4067L77.1734 75.1906L94.5306 81.4543C98.6236 82.9304 101.352 86.8142 101.352 91.1651V91.1651Z" fill="#DDDAD7"/>
<path d="M101.352 91.1652V101.791C96.8153 106.28 91.5603 110.045 85.7753 112.899C85.7056 112.934 85.6382 112.966 85.5684 112.997C85.522 113.022 85.4755 113.043 85.4267 113.064C77.5917 116.62 68.7946 110.419 59.5 110.419V74.9537C63.1955 74.9537 66.891 74.2123 70.3564 72.7318L73.2431 75.407L77.1734 75.1908L87.6137 78.9584L91.2093 80.2553L94.5306 81.4546C98.6236 82.9305 101.352 86.8142 101.352 91.1652V91.1652Z" fill="#C6C1B5"/>
<path d="M91.2093 80.2553L85.7753 112.897C84.5713 113.492 83.3465 114.045 82.0984 114.556C75.1304 117.42 67.4976 119 59.5 119C51.5024 119 43.8696 117.42 36.9016 114.556C35.6024 114.022 33.922 110.712 32.6692 110.091C32.4275 109.97 32.1997 109.945 31.9812 109.975L28.0626 80.1577L31.3862 78.9584L41.8266 75.1908L59.5 97.0966L73.2431 75.4069L77.1734 75.1908L87.6137 78.9584L91.2093 80.2553Z" fill="white"/>
<path d="M91.2093 80.2553L85.7753 112.897C85.7056 112.931 85.6382 112.964 85.5684 112.997C85.522 113.022 85.4755 113.043 85.4267 113.064C84.3366 113.599 83.2256 114.094 82.0984 114.556C75.1304 117.42 67.4976 119 59.5 119V97.0966L73.2431 75.4069L77.1734 75.1908L87.6137 78.9584L91.2093 80.2553Z" fill="#DDD9D0"/>
<path d="M63.7496 52.016C62.3783 51.044 61.1021 51.206 59.5 52.6119C57.8982 51.2058 56.6219 51.0438 55.2504 52.016C53.8505 53.0084 52.4004 54.0007 50.6006 53.1323C50.6006 53.1323 52.9757 59.5767 59.4998 54.9392C66.0239 59.5767 68.399 53.1323 68.399 53.1323C66.5993 54.0007 65.1495 53.0084 63.7496 52.016Z" fill="#5B5B5B"/>
<path d="M68.3971 53.134C68.3437 53.2781 65.9497 59.5232 59.5 54.9399V52.611C61.1014 51.2049 62.3774 51.0445 63.7487 52.016C65.1502 53.0084 66.5958 54.0009 68.3971 53.134Z" fill="#3F3F3F"/>
<path d="M77.1734 75.1908C75.056 82.1611 70.6865 91.7323 61.7638 99.3557L59.5 101.292L57.2339 99.3557C48.3135 91.7323 43.944 82.1611 41.8266 75.1908L48.6436 72.7318C50.2194 78.1983 53.0759 85.5196 59.5 91.9577C65.9079 85.5359 68.776 78.196 70.3564 72.7318L77.1734 75.1908Z" fill="#FF2C5A"/>
<path d="M77.1734 75.1908C75.056 82.1611 70.6865 91.7323 61.7638 99.3557L59.5 101.292V91.9577C65.9079 85.5359 68.776 78.196 70.3564 72.7318L77.1734 75.1908Z" fill="#C60C46"/>
<path d="M36.9016 114.556C34.252 113.468 31.6977 112.195 29.2549 110.747L24.7064 81.3686L31.3862 78.9584L36.9016 114.556Z" fill="#FF2C5A"/>
<path d="M94.2936 81.3686L89.7451 110.747C87.3023 112.195 84.748 113.468 82.0984 114.556L87.6137 78.9584L94.2936 81.3686Z" fill="#C60C46"/>
</svg>
