<svg width="119" height="124" viewBox="0 0 119 124" fill="none" xmlns="http://www.w3.org/2000/svg">
<path d="M21.3337 110.22L103.108 104.751C112.796 94.1874 118.711 80.1069 118.711 64.6435C118.711 31.8622 92.137 5.2878 59.3557 5.2878C26.5744 5.2878 0 31.8622 0 64.6433C0 82.9576 8.29665 99.3319 21.3337 110.22V110.22Z" fill="#45304C"/>
<path d="M84.009 89.5732C82.8694 89.4802 82.2632 89.0378 80.9203 88.2807C77.5666 86.3896 74.1565 84.9898 70.4048 84.1239C68.6956 82.4147 68.2624 79.1744 68.1844 76.9073C67.2924 77.9464 66.3562 78.8151 65.4618 79.5097C63.7192 80.863 61.5686 81.598 59.3538 81.598C59.0042 81.598 58.6563 81.5777 58.3111 81.5414C58.1013 84.7989 57.2575 90.371 54.0404 93.7051C51.3229 93.4407 49.1641 94.6736 49.026 97.4432C47.749 97.7533 46.9623 98.6831 47.1121 100.067L37.692 105.697C37.2368 105.89 32.2282 108.096 32.2282 112.098V117.445C39.2903 121.081 47.1743 123.344 55.5301 123.876C55.4632 123.115 55.4264 122.347 55.4264 121.57C55.4264 107.146 67.1608 95.4116 81.5844 95.4116C86.977 95.4116 91.9916 97.0544 96.1594 99.8627C94.6149 94.9384 91.2397 90.1641 84.009 89.5732V89.5732Z" fill="#F9A373"/>
<path d="M32.5916 112.098C32.5916 108.191 37.8558 106.023 37.8558 106.023L47.506 100.255C47.0971 97.9709 49.3819 97.7463 49.3819 97.7463C49.3819 93.3579 54.1749 94.0871 54.1749 94.0871C57.5894 90.6726 58.4673 84.9215 58.6788 81.5736C56.7046 81.4401 54.8103 80.7254 53.2455 79.51C52.3511 78.8154 51.4147 77.9464 50.5229 76.9075C50.4449 79.1747 50.0115 82.415 48.3023 84.1242C44.5508 84.9898 41.1407 86.3898 37.7868 88.281C36.4439 89.0383 35.8375 89.4804 34.6981 89.5735C21.3723 90.6627 21.1385 105.961 21.3337 110.22C24.7771 113.096 28.5521 115.587 32.5914 117.632C32.5916 115.704 32.5916 113.644 32.5916 112.098V112.098Z" fill="#EF8E5E"/>
<path d="M73.0828 55.8415C72.5803 54.5308 71.8121 54.0027 71.9264 52.4229C72.1045 49.9634 71.9572 45.636 68.9676 44.2907C66.457 43.161 63.4098 43.7621 61.2955 44.4652C60.1741 44.838 58.9516 44.8744 57.8089 44.5793L57.6725 56.2398C57.6725 56.2398 54.6657 57.9962 54.6657 61.9333C54.6657 65.506 54.5654 77.3719 64.5414 80.7411C64.8806 80.5374 65.2108 80.3133 65.5294 80.066C67.726 78.3602 72.8354 73.4807 72.8344 65.051L73.5365 59.9377C73.7291 58.5353 73.5721 57.1187 73.0828 55.8415V55.8415Z" fill="#FBB989"/>
<path d="M65.3937 80.1667C55.0591 77.339 55.1619 65.481 55.1619 61.9791C55.1619 58.2239 58.0296 56.5487 58.0296 56.5487L58.1686 44.6585C57.913 44.6088 57.6596 44.5475 57.4118 44.4652C55.2975 43.7619 52.2503 43.1613 49.7397 44.2907C48.4542 44.8693 46.3606 46.6974 46.7826 52.4425C46.896 53.9867 46.1357 54.5284 45.6398 55.8025C45.1383 57.0906 44.976 58.5202 45.1706 59.9365L45.8717 65.036C45.8717 73.4809 50.9811 78.3602 53.1779 80.066C56.7434 82.8346 61.7682 82.8859 65.3937 80.1667Z" fill="#F9A373"/>
<path d="M36.4531 58.2215L37.1581 57.8324C37.4718 57.6595 37.467 57.2069 37.1498 57.0405C36.9422 56.9315 36.8518 56.6807 36.9449 56.4653C37.05 56.2223 37.1634 55.9772 37.286 55.7298C37.6857 54.9233 38.1092 54.126 38.5518 53.3466C39.4819 52.5215 40.1074 52.0086 40.3402 51.8112L40.3727 51.8022C41.8864 51.3807 42.8709 50.6902 43.1219 50.5688C42.8797 50.9063 41.6044 53.8949 38.3083 55.6978C38.0973 55.8134 38.1245 56.1172 38.3515 56.1923C40.0037 56.7379 41.7175 55.9999 41.8459 55.9808C41.8135 56.1441 41.7342 56.4515 41.6802 56.8978C41.4375 58.9074 42.0787 59.9353 42.0986 60.0065L41.9322 60.0632C41.4069 60.2423 40.7482 60.6061 40.5924 61.3228C40.2208 63.0051 39.9427 64.322 39.7203 65.3732C39.0109 66.2941 38.302 66.9484 37.8274 67.3378C37.5304 67.5812 37.0834 67.4824 36.9197 67.135C36.3024 65.826 35.1431 62.5988 36.2358 58.498C36.267 58.3805 36.3465 58.2806 36.4531 58.2215V58.2215Z" fill="#E80054"/>
<path d="M82.254 58.2215L81.549 57.8324C81.2355 57.6595 81.2401 57.2069 81.5573 57.0405C81.7651 56.9315 81.8552 56.6807 81.7622 56.4653C81.6571 56.2223 81.5439 55.9772 81.4211 55.7298C81.0214 54.9233 80.5981 54.126 80.1553 53.3466C79.2252 52.5215 78.5997 52.0086 78.3668 51.8112L78.3344 51.8022C76.8207 51.3807 75.8361 50.6902 75.5851 50.5688C75.8274 50.9063 77.1027 53.8949 80.3987 55.6978C80.6097 55.8134 80.5826 56.1172 80.3556 56.1923C78.7034 56.7379 76.9898 55.9999 76.8612 55.9808C76.8936 56.1441 76.9728 56.4515 77.0269 56.8978C77.2696 58.9074 76.6283 59.9353 76.6085 60.0065L76.7749 60.0632C77.3001 60.2423 77.9589 60.6061 78.1146 61.3228C78.4863 63.0051 78.7644 64.322 78.9868 65.3732C79.6962 66.2941 80.405 66.9484 80.8796 67.3378C81.1767 67.5812 81.6236 67.4824 81.7874 67.135C82.4047 65.826 83.5639 62.5988 82.4713 58.498C82.4401 58.3805 82.3608 58.2806 82.254 58.2215V58.2215Z" fill="#E80054"/>
<path d="M38.1669 63.6221C38.1216 63.6221 38.0758 63.618 38.0297 63.6093C37.6322 63.5339 37.3708 63.1512 37.4459 62.7534C37.4691 62.6301 38.0373 59.6851 39.9158 55.5765C40.0839 55.2082 40.5188 55.0464 40.887 55.2148C41.2553 55.3831 41.4171 55.818 41.2487 56.1863C39.4504 60.1194 38.8915 62.9973 38.8862 63.0259C38.8195 63.377 38.5121 63.6221 38.1669 63.6221Z" fill="#FF7186"/>
<path d="M80.5402 63.6224C80.1947 63.6224 79.8871 63.377 79.8209 63.0252C79.811 62.9738 79.2494 60.1035 77.4583 56.186C77.29 55.8178 77.452 55.3829 77.82 55.2145C78.1883 55.0466 78.6232 55.2082 78.7913 55.5762C80.6698 59.6848 81.2379 62.6298 81.2612 62.7531C81.3363 63.1509 81.0746 63.5342 80.6768 63.6093C80.6311 63.6183 80.5853 63.6224 80.5402 63.6224Z" fill="#FF7186"/>
<path d="M81.251 49.1157C81.2028 49.661 81.3932 50.1528 81.8174 50.5768C83.3704 52.1297 89.8856 59.0394 89.9571 59.1148C89.992 59.1501 90.8227 59.9799 91.8962 59.9835H91.9035C92.2991 59.9835 92.671 59.8714 93.0116 59.6579C92.6632 57.6769 91.7954 55.0849 89.726 52.5598C89.6342 52.4478 89.4992 52.3788 89.3548 52.3674L88.4008 52.2928C87.9763 52.2596 87.7593 51.7678 88.0207 51.4318C88.1919 51.2118 88.1663 50.8961 87.9599 50.7088C87.7268 50.4976 87.4836 50.2878 87.2297 50.0804C85.7833 48.9001 84.2723 47.7905 82.7441 46.782C82.1937 47.2587 81.337 48.1464 81.251 49.1157V49.1157Z" fill="#42BA9B"/>
<path d="M93.2289 62.2422C93.2386 61.5646 93.1923 60.5221 92.938 59.2703C91.5871 60.2488 90.2156 58.8597 90.2156 58.8597C90.2156 58.8597 83.6492 51.8947 82.0745 50.32C80.8506 49.0961 82.3366 47.5981 83.0595 46.9913C82.7732 46.7994 82.4873 46.6056 82.2 46.4212C81.3232 46.2763 80.4152 46.1412 79.4849 46.0186C79.3759 46.5954 78.9715 47.1017 78.3799 47.3079L77.0671 47.7653L77.194 47.9373C78.4335 49.617 79.7713 50.6815 81.4041 51.2871C81.6379 51.3739 81.6425 51.6944 81.4148 51.7891C80.7478 52.0667 79.6446 52.2373 77.9836 51.6966C78.8397 52.4016 79.6562 53.107 80.4251 53.7987C80.6315 53.9843 80.9472 53.9746 81.1435 53.7784C81.4758 53.4455 82.0444 53.6868 82.036 54.1573L82.0202 55.0394C82.0176 55.1857 82.0772 55.3267 82.183 55.4277C83.5661 56.7461 84.751 57.9628 85.6983 58.9612C88.1248 61.5192 90.9691 62.5402 92.3468 62.9077C92.787 63.0252 93.2221 62.6986 93.2289 62.2422V62.2422Z" fill="#34A086"/>
<path d="M26.5958 59.875C27.7257 60.0538 28.6979 59.1642 28.7386 59.1261L28.7577 59.107C28.8152 59.0452 34.5309 52.8984 36.6038 50.8259C37.2022 50.2277 37.4415 49.5959 37.3158 48.948C37.1457 48.0725 36.3179 47.3944 35.6616 46.9821C34.2366 47.9371 32.8288 48.9778 31.4777 50.0804C31.2235 50.2878 30.9803 50.4973 30.7475 50.7088C30.5408 50.8961 30.5154 51.2118 30.6867 51.4318C30.9481 51.7678 30.731 52.2596 30.3065 52.2928L29.3525 52.3674C29.2081 52.3788 29.0734 52.4476 28.9813 52.5598C26.9667 55.0183 26.0909 57.5398 25.7243 59.4995C25.9901 59.6984 26.2806 59.8256 26.5958 59.875V59.875Z" fill="#42BA9B"/>
<path d="M33.0095 58.9609C33.9568 57.9623 35.1417 56.7456 36.5248 55.4275C36.6307 55.3264 36.6903 55.1854 36.6876 55.0391L36.6718 54.157C36.6634 53.6868 37.232 53.4452 37.5643 53.7781C37.7603 53.9744 38.0763 53.984 38.2827 53.7985C39.0516 53.107 39.8681 52.4016 40.7242 51.6963C39.0632 52.2368 37.9602 52.0665 37.293 51.7889C37.065 51.6939 37.0699 51.3736 37.3037 51.2869C38.9365 50.6812 40.2743 49.6167 41.5138 47.9371L41.6407 47.7651L40.3281 47.3077C39.7365 47.1015 39.3322 46.5952 39.2229 46.0183C38.2926 46.1409 37.3846 46.2761 36.5076 46.421C36.1132 46.6739 35.7197 46.9363 35.3277 47.2035C36.3009 47.7791 37.8747 49.0413 36.3467 50.5691C34.2455 52.6702 28.4917 58.8597 28.4917 58.8597C28.4917 58.8597 27.0403 60.202 25.8057 59.0961C25.5191 60.4257 25.4682 61.5333 25.4787 62.2422C25.4852 62.6986 25.9203 63.0252 26.3612 62.9074C27.7388 62.5399 30.583 61.519 33.0095 58.9609V58.9609Z" fill="#34A086"/>
<path d="M89.7948 58.9931C89.5641 58.9931 89.3371 58.8846 89.1944 58.6816C89.1385 58.6024 84.8378 52.584 76.646 47.5688C76.3008 47.3576 76.1923 46.9062 76.4038 46.561C76.615 46.2158 77.0664 46.107 77.4116 46.3185C85.8907 51.5095 90.2139 57.5827 90.3939 57.8385C90.6267 58.1697 90.5468 58.6268 90.2156 58.8596C90.0874 58.9498 89.9404 58.9931 89.7948 58.9931Z" fill="#6AE5BF"/>
<path d="M28.9123 58.9931C28.7667 58.9931 28.6196 58.9498 28.4915 58.8596C28.1603 58.6268 28.0804 58.1699 28.3132 57.8385C28.4932 57.5824 32.8164 51.5098 41.2955 46.3185C41.6407 46.107 42.0918 46.2158 42.3033 46.561C42.5146 46.9062 42.4061 47.3573 42.0608 47.5688C33.8385 52.6029 29.5548 58.6213 29.5124 58.6816C29.3699 58.8844 29.1429 58.9931 28.9123 58.9931V58.9931Z" fill="#6AE5BF"/>
<path d="M79.5946 38.7242C79.2228 39.6823 79.0651 41.5056 80.8341 42.5166C82.9035 43.6994 93.6689 45.7044 94.5338 45.8643C95.3621 46.2088 97.002 46.3737 98.2499 45.0607C96.7524 43.3025 94.2568 41.1163 90.4545 39.8667C90.2997 39.8158 90.1301 39.8318 89.9862 39.9084L89.0358 40.4137C88.613 40.6386 88.1098 40.303 88.1551 39.8263C88.1847 39.514 87.97 39.23 87.6609 39.177C87.312 39.1171 86.9547 39.0651 86.5884 39.0217C84.3234 38.7537 82.0333 38.604 79.8064 38.588C79.7214 38.6016 79.6349 38.6166 79.5496 38.6304L79.5946 38.7242Z" fill="#FF4155"/>
<path d="M98.0105 44.7859C96.5593 46.3512 94.6394 45.5144 94.6394 45.5144C94.6394 45.5144 83.0954 43.3907 81.0143 42.2014C78.9333 41.0121 79.9932 38.714 79.9932 38.714L79.9336 38.5909C79.8914 38.5905 79.8483 38.5885 79.8061 38.588C78.6302 38.7753 77.4145 38.9953 76.1758 39.2518L75.7603 39.7323L76.1511 39.6952C76.9314 39.6213 77.6558 40.084 77.9126 40.8212L79.4212 45.1517C79.5462 45.5105 79.5404 45.8836 79.4323 46.2214C80.4436 46.3539 81.4284 46.5014 82.3761 46.6601C82.684 46.7115 82.9779 46.5118 83.0455 46.2071C83.1598 45.6903 83.8452 45.576 84.1212 46.0275L84.6389 46.874C84.7246 47.0145 84.8664 47.1124 85.0277 47.1441C87.1364 47.5599 88.9958 47.9989 90.4976 48.3741C94.345 49.3359 97.6607 48.5871 99.1901 48.1038C99.6795 47.9492 99.8951 47.3765 99.626 46.9394C99.2904 46.3943 98.7615 45.6293 98.0105 44.7859V44.7859Z" fill="#E80054"/>
<path d="M24.1573 45.8664C27.2533 45.0791 37.4173 42.5794 37.5198 42.5542L37.7935 42.4868L37.8323 38.6115C35.9443 38.6605 34.0239 38.7966 32.1187 39.0219C31.7521 39.0653 31.3948 39.1174 31.0462 39.1772C30.737 39.2303 30.5224 39.5142 30.552 39.8265C30.5973 40.3033 30.0941 40.6388 29.6713 40.414L28.7209 39.9086C28.577 39.8321 28.4074 39.8161 28.2526 39.867C24.529 41.0906 22.0576 43.2131 20.5505 44.9516C21.2545 45.6297 22.4334 46.3057 24.1573 45.8664Z" fill="#FF4155"/>
<path d="M42.556 39.6952L42.9468 39.7323L42.5313 39.2518C41.2926 38.995 40.0769 38.7753 38.9009 38.588C38.4266 38.5914 37.9481 38.604 37.4689 38.6193L37.4563 39.8723C37.4425 41.2425 36.5042 42.4296 35.1734 42.7574C31.9743 43.5458 26.2689 44.9543 24.0677 45.5142C22.5429 45.902 21.481 45.3487 20.7918 44.6788C19.9894 45.5646 19.431 46.3713 19.0809 46.9392C18.8115 47.3762 19.0271 47.949 19.5167 48.1035C21.0462 48.5868 24.3618 49.3357 28.2093 48.3739C29.7111 47.9984 31.57 47.5596 33.6784 47.1439C33.84 47.1122 33.982 47.014 34.068 46.8735L34.5857 46.0271C34.8597 45.5791 35.5368 45.6884 35.6587 46.1949C35.7316 46.498 36.0228 46.711 36.3303 46.6596C37.278 46.5012 38.2628 46.3534 39.2743 46.2209C39.1662 45.8831 39.1604 45.5101 39.2854 45.1513L40.794 40.8208C41.0511 40.084 41.7754 39.6213 42.556 39.6952V39.6952Z" fill="#E80054"/>
<path d="M93.9618 45.9679C93.8687 45.9679 93.774 45.95 93.6827 45.9125C93.6187 45.8863 87.1766 43.2756 77.8377 42.9616C77.4332 42.9481 77.1163 42.6091 77.1298 42.2046C77.1434 41.8 77.4826 41.486 77.8869 41.4967C87.508 41.8201 93.9712 44.4458 94.2416 44.5575C94.6156 44.7118 94.794 45.1403 94.6394 45.5146C94.5226 45.7971 94.2496 45.9679 93.9618 45.9679V45.9679Z" fill="#FF7186"/>
<path d="M24.7456 45.9679C24.4575 45.9679 24.1845 45.7971 24.0677 45.5144C23.9134 45.1404 24.0914 44.7118 24.4655 44.5572C24.7359 44.4455 31.199 41.8199 40.8202 41.4964C41.226 41.486 41.5637 41.7998 41.5772 42.2043C41.5908 42.6089 41.2739 42.9479 40.8693 42.9614C31.5108 43.2759 25.0886 45.8858 25.0246 45.912C24.9336 45.95 24.8388 45.9679 24.7456 45.9679V45.9679Z" fill="#FF7186"/>
<path d="M92.3577 33.4222C90.8213 33.4222 86.5363 33.7534 83.2119 34.0315C82.0813 34.126 81.0417 34.7001 80.3597 35.6067C79.6777 36.5135 79.4144 37.672 79.6373 38.7852L79.645 38.824C80.1114 38.7486 80.5732 38.6772 81.0264 38.6115C81.3353 38.5667 81.5543 38.2869 81.526 37.9761C81.4778 37.4491 82.0956 37.1315 82.496 37.4772L83.2471 38.126C83.3716 38.2336 83.5363 38.2837 83.6998 38.2648C85.8349 38.0187 87.7396 37.8704 89.2846 37.7706C92.0253 37.5935 94.2721 36.7129 95.8304 35.8802C95.4248 34.9998 94.4133 33.4222 92.3577 33.4222V33.4222Z" fill="#42BA9B"/>
<path d="M86.6516 29.6809C86.4888 29.6797 86.3318 29.7465 86.2182 29.863L85.4669 30.6337C85.1326 30.9765 84.5512 30.8101 84.4492 30.3423C84.3823 30.0358 84.0911 29.8308 83.7808 29.8744C83.4302 29.9236 83.0741 29.983 82.7119 30.0532C80.483 30.4859 78.2663 31.0376 76.1489 31.6968C75.1898 32.3007 74.2207 32.9415 73.2536 33.6177L76.4324 36.3662C77.1371 36.9757 77.2151 38.0497 76.6056 38.7547L75.9553 39.5067C77.3411 39.215 78.6966 38.9723 80.0038 38.7668L79.9932 38.714C79.5685 36.592 81.0856 34.5739 83.2422 34.3937C86.5167 34.1199 90.8276 33.7856 92.3577 33.7856C94.2406 33.7856 95.1523 35.2462 95.5103 36.0452C96.3508 35.6193 97.0187 35.1927 97.4812 34.8658C97.9003 34.5696 97.9313 33.9583 97.5417 33.624C96.0731 32.3644 92.3245 29.7264 86.6516 29.6809V29.6809Z" fill="#34A086"/>
<path d="M24.1072 33.3342C24.6247 33.875 25.3791 34.149 26.3494 34.149C28.9709 34.149 39.3709 35.0965 39.4756 35.1062L39.7438 35.1306L41.2926 31.3234C39.564 30.8287 37.7848 30.4011 35.9954 30.0537C35.6332 29.9835 35.2771 29.9241 34.9266 29.8749C34.616 29.8313 34.325 30.0365 34.2581 30.3427C34.1559 30.8105 33.5747 30.977 33.2404 30.6342L32.4891 29.8635C32.3755 29.7468 32.2185 29.6799 32.0557 29.6813C28.3221 29.7111 25.4224 30.8641 23.4574 32.0078C23.5221 32.3766 23.6861 32.8945 24.1072 33.3342V33.3342Z" fill="#42BA9B"/>
<path d="M42.275 36.3664L45.4538 33.6179C44.4869 32.9418 43.5176 32.301 42.5584 31.697C42.0257 31.531 41.4864 31.3721 40.9423 31.2202L40.4776 32.3625C39.9027 33.7754 38.4755 34.6497 36.9555 34.5187C33.6728 34.2352 28.177 33.7856 26.3494 33.7856C24.2613 33.7856 23.8671 32.4136 23.7947 31.8164C22.6047 32.473 21.7214 33.1472 21.1656 33.624C20.776 33.9583 20.8068 34.5693 21.2262 34.8658C22.5356 35.7918 25.4656 37.5153 29.4235 37.7709C30.9682 37.8707 32.8726 38.0189 35.0075 38.2651C35.171 38.284 35.3362 38.2338 35.461 38.1263L36.212 37.4775C36.6096 37.1342 37.2213 37.4448 37.1828 37.9649C37.1598 38.2757 37.3722 38.5669 37.6809 38.6115C39.2968 38.8455 41.0021 39.1387 42.7523 39.5069L42.102 38.7549C41.4925 38.0504 41.5705 36.9757 42.275 36.3664V36.3664Z" fill="#34A086"/>
<path d="M75.1869 36.5535C74.8683 36.5535 74.5749 36.3439 74.4828 36.0224C74.3712 35.6333 74.596 35.2275 74.9853 35.1159C84.3414 32.4316 91.3918 32.9706 91.6874 32.9953C92.0907 33.0283 92.3909 33.3822 92.3577 33.7858C92.3245 34.1892 91.9701 34.4898 91.5677 34.4564C91.4979 34.4506 84.472 33.9193 75.3896 36.5251C75.322 36.544 75.254 36.5535 75.1869 36.5535V36.5535Z" fill="#6AE5BF"/>
<path d="M43.5202 36.5535C43.4534 36.5535 43.3853 36.5443 43.3177 36.5249C34.2167 33.9137 27.2099 34.4506 27.1399 34.4559C26.737 34.4898 26.3826 34.189 26.3494 33.7856C26.3162 33.3822 26.6163 33.0283 27.0197 32.9951C27.3155 32.9706 34.3655 32.4313 43.7218 35.1156C44.1109 35.2273 44.3357 35.6333 44.2243 36.0222C44.1322 36.3439 43.8388 36.5532 43.5202 36.5535Z" fill="#6AE5BF"/>
<path d="M91.2377 20.8941C90.5112 20.3909 89.5855 20.3306 88.487 20.7131C86.2611 21.4898 81.3043 24.0416 77.5381 26.0456C76.4745 26.6113 75.7448 27.6163 75.5355 28.8022C75.3487 29.8606 75.6038 30.9239 76.2327 31.7779C77.4411 31.0133 78.6348 30.3035 79.787 29.6532C80.0588 29.4999 80.1618 29.1597 80.023 28.8802C79.7875 28.4063 80.2485 27.8869 80.7469 28.0645L81.6815 28.3978C81.8366 28.453 82.0081 28.4402 82.1537 28.3634C84.0555 27.3619 85.7775 26.5348 87.1817 25.8833C89.4256 24.8421 91.0902 23.4129 92.2402 22.1607C92.021 21.6798 91.7026 21.2158 91.2377 20.8941Z" fill="#FF4155"/>
<path d="M93.7743 20.2109C94.0579 19.7831 93.8656 19.2021 93.3815 19.0313C91.557 18.3879 87.1083 17.2839 81.8027 19.2927C81.6503 19.3504 81.5282 19.4696 81.4645 19.6193L81.0427 20.6097C80.8549 21.0501 80.2529 21.1054 79.9883 20.7061C79.8151 20.4447 79.4696 20.3587 79.1959 20.5116C78.887 20.6843 78.5762 20.8682 78.2639 21.0647C75.5713 22.7593 72.9849 24.6626 70.7187 26.6596C69.975 27.8229 69.2419 29.0401 68.5393 30.3011L70.0348 30.7493C70.9164 31.0133 71.4283 31.949 71.1761 32.8347L71.0976 33.1101C71.1897 33.1024 72.1261 32.6426 72.9633 33.3667L73.3471 33.6986C74.4143 32.949 75.4846 32.2438 76.5416 31.5819C75.2653 29.8754 75.7823 27.391 77.7084 26.3662C81.3041 24.4532 86.3745 21.8348 88.6067 21.0562C90.5938 20.3631 91.5284 21.3791 91.9689 22.447C92.8023 21.5817 93.3992 20.7769 93.7743 20.2109V20.2109Z" fill="#E80054"/>
<path d="M29.9875 21.4014C32.5364 22.2387 43.9609 28.6047 44.076 28.6689L44.3691 28.8324L46.6016 25.4855C44.6894 23.9178 42.602 22.4235 40.4432 21.0647C40.1309 20.8682 39.8203 20.6841 39.5114 20.5116C39.2377 20.3584 38.8922 20.4447 38.719 20.7061C38.4547 21.1054 37.8524 21.0504 37.6646 20.6097L37.2429 19.6193C37.1791 19.4693 37.057 19.3504 36.9047 19.2927C33.2225 17.8985 29.9538 18.0039 27.6879 18.414C27.6741 19.2578 27.9624 20.7361 29.9875 21.4014V21.4014Z" fill="#FF4155"/>
<path d="M46.3196 25.2534L45.7086 26.1692C44.8873 27.4002 43.2632 27.8002 41.9656 27.0889C38.4627 25.1689 31.9772 21.6725 30.1006 21.0559C28.2245 20.4396 28.0164 19.0735 28.0479 18.3525C26.8809 18.5373 25.9496 18.8111 25.3255 19.0311C24.8415 19.2019 24.6494 19.7828 24.9328 20.2107C25.8188 21.5475 27.9275 24.2136 31.5251 25.8831C32.9293 26.5346 34.6511 27.3616 36.5526 28.3629C36.6982 28.4397 36.8705 28.4528 37.0255 28.3976L37.9602 28.0642C38.4564 27.8874 38.9157 28.4015 38.6873 28.8734C38.5516 29.1539 38.6485 29.4994 38.9198 29.6528C40.9844 30.8178 43.1794 32.1668 45.36 33.6986L45.7437 33.3667C46.581 32.6426 47.5174 33.1024 47.6094 33.1101L47.5309 32.8347C47.2792 31.9511 47.7933 31.0126 48.6732 30.7488L50.1678 30.3008C49.4652 29.0398 48.7321 27.8229 47.9883 26.6593C47.4495 26.185 46.8916 25.7162 46.3196 25.2534V25.2534Z" fill="#E80054"/>
<path d="M70.4934 32.2024C70.2885 32.2024 70.0847 32.1169 69.9399 31.9502C69.6743 31.6444 69.707 31.1817 70.0125 30.9162C78.8499 23.2407 87.3389 20.6678 87.696 20.562C88.0841 20.4471 88.4919 20.6686 88.607 21.0564C88.7218 21.4443 88.5006 21.852 88.1127 21.9671C88.0282 21.9923 79.5573 24.5676 70.9736 32.0229C70.835 32.1435 70.6637 32.2024 70.4934 32.2024V32.2024Z" fill="#FF7186"/>
<path d="M48.2139 32.2024C48.0436 32.2024 47.8723 32.1432 47.7335 32.0228C39.1498 24.5676 30.6792 21.9923 30.5946 21.9671C30.2067 21.8518 29.9855 21.4438 30.1006 21.0559C30.2157 20.6683 30.6234 20.4471 31.0113 20.5617C31.3684 20.6676 39.8574 23.2404 48.6948 30.9159C49.0003 31.1815 49.033 31.6444 48.7675 31.9499C48.6226 32.1171 48.4189 32.2024 48.2139 32.2024V32.2024Z" fill="#FF7186"/>
<path d="M40.7039 11.7977C42.5429 13.6368 46.488 18.014 46.8041 18.3651L48.8217 21.5204C49.8615 23.1462 52.048 23.6521 53.6964 22.6481L54.0244 22.4482C52.9584 20.2422 51.7074 18.03 50.3361 15.909C50.1358 15.5991 49.9318 15.3014 49.7244 15.0145C49.5408 14.7604 49.1909 14.6928 48.9237 14.8568C48.5158 15.1073 47.9927 14.8035 48.0084 14.325L48.0436 13.2494C48.0489 13.0866 47.9886 12.9272 47.8747 12.8106C45.1618 10.0331 42.1984 8.74735 39.9807 8.15259C39.6335 9.31377 39.6246 10.7182 40.7039 11.7977V11.7977Z" fill="#42BA9B"/>
<path d="M53.0648 29.433C53.9437 29.1694 54.5349 29.6281 54.8469 29.9738C54.5872 27.5499 54.3478 25.0885 54.1545 22.7155C54.06 22.5171 53.9619 22.3184 53.8643 22.12L53.5072 22.3375C52.0148 23.2468 50.0694 22.7969 49.1277 21.3244L47.0937 18.1439C47.0937 18.1439 42.8962 13.4764 40.9604 11.5407C39.9437 10.5239 40.0258 9.24062 40.3325 8.25096C39.1558 7.90767 38.1611 7.7565 37.4846 7.69133C36.9737 7.64215 36.5546 8.08792 36.6314 8.59546C36.8712 10.1813 37.6593 13.4878 40.2177 16.5183C41.2163 17.7013 42.4293 19.1772 43.7315 20.8871C43.8311 21.0179 43.9815 21.102 44.1453 21.1172L45.1332 21.2091C45.6602 21.258 45.8593 21.9237 45.4458 22.254C45.202 22.4487 45.1519 22.8007 45.3338 23.0544C46.896 25.2343 48.5112 27.6969 49.9878 30.3551L53.0648 29.433Z" fill="#34A086"/>
<path d="M77.4894 11.2839C75.9989 12.7743 72.4061 17.6402 69.6545 21.4596C69.0377 22.3157 68.8572 23.3868 69.1593 24.3978C69.4442 25.3518 70.1201 26.1111 71.023 26.5118C71.8036 25.2966 72.5948 24.1405 73.373 23.0546C73.5547 22.801 73.5048 22.449 73.2611 22.2542C72.8478 21.924 73.0469 21.2582 73.5738 21.2093L74.5618 21.1175C74.7258 21.1022 74.876 21.0182 74.9756 20.8873C76.2778 19.1774 77.4908 17.7015 78.4894 16.5185C80.3387 14.328 81.2605 11.9966 81.7213 10.2717C80.5218 9.94513 78.878 9.89498 77.4894 11.2839V11.2839Z" fill="#42BA9B"/>
<path d="M81.2222 7.69156C79.2964 7.87738 74.7968 8.75172 70.8328 12.8102C70.719 12.9267 70.6587 13.0861 70.664 13.2489L70.6991 14.3246C70.7146 14.803 70.1918 15.1068 69.7838 14.8563C69.5166 14.6923 69.167 14.7599 68.9831 15.0141C68.7758 15.3009 68.5718 15.5986 68.3714 15.9085C66.9471 18.1117 65.6503 20.4132 64.5582 22.7038C64.3648 25.0785 64.1255 27.5419 63.8655 29.9677C64.1788 29.6227 64.7682 29.1704 65.6423 29.4325L68.7191 30.3546C69.5234 28.9068 70.3691 27.5198 71.2246 26.2022C69.451 25.4553 68.814 23.2472 69.9493 21.6713C72.4224 18.2384 76.2291 13.0575 77.7464 11.5402C79.0195 10.2671 80.523 10.3112 81.6265 10.613C81.8611 9.80558 81.9982 9.10906 82.0757 8.59521C82.1523 8.08791 81.7331 7.64214 81.2222 7.69156V7.69156Z" fill="#34A086"/>
<path d="M53.4575 30.414C53.1716 30.414 52.9 30.2456 52.7821 29.9658C48.1184 18.917 41.0956 12.6372 41.0251 12.5752C40.7216 12.3072 40.6927 11.8442 40.9607 11.5407C41.2284 11.2371 41.6916 11.2085 41.9952 11.4762C42.2929 11.7391 49.3402 18.0419 54.1325 29.3957C54.2899 29.7686 54.1153 30.1986 53.7422 30.3558C53.6491 30.3955 53.5527 30.414 53.4575 30.414Z" fill="#6AE5BF"/>
<path d="M65.2496 30.414C65.1546 30.414 65.0579 30.3953 64.9649 30.3561C64.5921 30.1986 64.4171 29.7688 64.5746 29.3959C69.3669 18.0421 76.4142 11.7391 76.7119 11.4765C77.0152 11.2088 77.4784 11.2374 77.7464 11.5409C78.0141 11.8442 77.9855 12.3072 77.6822 12.5752C77.6117 12.6377 70.5804 18.9371 65.925 29.966C65.807 30.2458 65.5355 30.414 65.2496 30.414V30.414Z" fill="#6AE5BF"/>
<path d="M60.2582 1.91714C59.4168 2.5652 58.9904 3.69562 58.9904 5.27665V24.8518H64.5829C64.9676 20.5993 65.2336 16.5042 65.2406 13.2576C65.2411 12.9773 64.9945 12.7617 64.7166 12.7983L63.2787 12.9875C62.8332 13.0461 62.5839 12.4901 62.9238 12.1963L64.7619 10.6082C64.9993 10.4032 65.1183 10.0924 65.0776 9.78159C64.6737 6.71401 63.4316 3.81215 61.4978 1.38585C61.0952 1.45586 60.6582 1.60898 60.2582 1.91714V1.91714Z" fill="#FF4155"/>
<path d="M63.5341 29.9612L63.6012 30.303C63.6276 30.2824 63.7928 29.997 64.0993 29.7446C64.2858 27.994 64.4608 26.2266 64.6156 24.4884H62.4928C60.7592 24.4884 59.3535 23.083 59.3535 21.3491V5.27665C59.3535 2.48429 60.7386 1.82484 61.7561 1.71631C61.4915 1.3672 61.2141 1.02657 60.9222 0.69685C60.1198 -0.209226 58.7098 -0.230303 57.8539 0.625382L57.8452 0.634103C55.1938 3.59654 53.6474 7.3897 53.5011 11.3626C53.4558 12.595 53.4633 14.0106 53.5132 15.5543C53.5321 16.1401 53.8253 16.6845 54.3037 17.0232L56.0519 18.2614C56.348 18.471 56.1765 18.9371 55.8152 18.9051L54.3953 18.7789C54.0087 18.7445 53.6809 19.0616 53.7058 19.449C53.9137 22.7019 54.2412 26.2598 54.6131 29.7482C54.9162 29.9997 55.0797 30.2822 55.1064 30.303L55.1735 29.9612C55.3389 29.1176 56.0781 28.5093 56.9379 28.5093H61.7704C62.6295 28.509 63.3686 29.1176 63.5341 29.9612V29.9612Z" fill="#E80054"/>
<path d="M59.3535 29.9374C58.9487 29.9374 58.6207 29.6092 58.6207 29.2046V6.00951C58.6207 5.60469 58.949 5.27666 59.3535 5.27666C59.7581 5.27666 60.0864 5.60493 60.0864 6.00951V29.2046C60.0864 29.6092 59.7584 29.9374 59.3535 29.9374V29.9374Z" fill="#FF7186"/>
<path d="M38.2371 55.5597C40.386 54.3843 41.8021 52.671 42.8581 50.7193C45.4489 49.1433 47.1385 46.5763 47.4539 46.1853C47.4999 46.257 47.9026 47.484 49.1895 48.1343L49.47 48.276C49.4349 48.3143 46.8274 49.3306 45.8467 52.0847C45.0821 51.6944 44.1731 52.0663 43.3853 53.2434C42.8608 54.0272 42.4986 54.9817 42.2861 55.9779C40.4061 56.7473 39.08 56.5974 38.3064 56.3418C37.9486 56.2238 37.9064 55.7407 38.2371 55.5597Z" fill="#FFB332"/>
<path d="M80.4746 55.5597C78.3257 54.3843 76.9096 52.671 75.8536 50.7193C73.2628 49.1433 71.5732 46.5763 71.2578 46.1853C71.2117 46.257 70.8091 47.484 69.5222 48.1343L69.2416 48.276C69.2768 48.3143 71.8843 49.3306 72.865 52.0847C73.6296 51.6944 74.5385 52.0663 75.3264 53.2434C75.8509 54.0272 76.2131 54.9817 76.4256 55.9779C78.3055 56.7473 79.6315 56.5974 80.4053 56.3418C80.7631 56.2238 80.8052 55.7407 80.4746 55.5597V55.5597Z" fill="#FFB332"/>
<path d="M38.0876 70.2406C38.6628 69.3493 38.9213 68.27 38.9213 68.27C38.9213 68.27 40.135 62.6855 40.4386 61.2894C40.6399 60.3629 41.5765 59.9782 42.1841 59.8239C42.3179 60.5567 42.5439 61.1888 42.8441 61.6634C42.8075 61.7938 42.7862 61.9323 42.7862 62.0806V67.6578C42.3128 69.6558 40.1644 70.5725 38.6153 70.979C38.185 71.0919 37.8466 70.6144 38.0876 70.2406Z" fill="#FFC839"/>
<path d="M80.6194 70.2406C80.0443 69.3493 79.786 68.27 79.786 68.27C79.786 68.27 78.5723 62.6855 78.2687 61.2894C78.0674 60.3629 77.1308 59.9782 76.5232 59.8239C76.3895 60.5567 76.1634 61.1888 75.8633 61.6634C75.8998 61.7938 75.9212 61.9323 75.9212 62.0806V67.6578C76.3946 69.6558 78.543 70.5725 80.092 70.979C80.5223 71.0919 80.8605 70.6144 80.6194 70.2406V70.2406Z" fill="#FFDD40"/>
<path d="M42.5761 69.2243C42.5761 69.2243 42.5761 63.5095 42.5761 62.0808C42.5761 61.8444 42.6287 61.6317 42.7152 61.4405C43.0686 62.1024 43.5452 62.5252 44.1063 62.5927C44.7541 62.671 45.4315 62.2567 46.0257 61.425C46.1541 61.7201 46.2246 62.0443 46.2246 62.3815V67.7428C46.2246 69.8312 44.2945 71.2031 42.8525 71.9367C42.4559 72.1385 42.024 71.7436 42.1803 71.3272C42.5529 70.3339 42.5761 69.2243 42.5761 69.2243V69.2243Z" fill="#FFDD40"/>
<path d="M76.131 69.2243C76.131 69.2243 76.131 63.5095 76.131 62.0808C76.131 61.8444 76.0784 61.6317 75.9919 61.4405C75.6384 62.1024 75.1619 62.5252 74.6008 62.5927C73.953 62.671 73.2756 62.2567 72.6813 61.425C72.5529 61.7201 72.4827 62.0443 72.4827 62.3815V67.7428C72.4827 69.8312 74.4128 71.2031 75.8548 71.9367C76.2511 72.1385 76.6833 71.7436 76.5271 71.3272C76.1545 70.3339 76.131 69.2243 76.131 69.2243V69.2243Z" fill="#FEE884"/>
<path d="M86.3558 89.2433L84.1887 88.3476C84.2093 88.4147 84.2108 88.4871 84.1873 88.5586C84.1446 88.6885 84.0385 88.7776 83.9031 88.797L78.987 89.495C78.6561 89.542 78.3787 89.753 78.2452 90.0595C78.1117 90.3659 78.1459 90.7128 78.3368 90.9873L81.1512 95.0329C81.2304 95.1468 81.2367 95.2866 81.1682 95.407C81.0996 95.5274 80.9763 95.5931 80.838 95.5836L75.895 95.2304C75.567 95.2062 75.2561 95.3501 75.0604 95.6127C74.8646 95.8755 74.8169 96.2152 74.9327 96.5217L76.663 101.1C76.7129 101.232 76.6833 101.371 76.5838 101.471C76.4839 101.571 76.3454 101.602 76.2128 101.553L71.6008 99.8443C71.2999 99.7329 70.9651 99.7792 70.7059 99.9681C70.4464 100.157 70.2999 100.461 70.3137 100.782L70.5264 105.662C70.5356 105.874 70.3798 105.968 70.3318 105.992C70.2839 106.016 70.115 106.083 69.9517 105.948L66.19 102.835C65.9422 102.63 65.6106 102.563 65.3029 102.657C64.9952 102.75 64.7566 102.99 64.6647 103.298L63.2562 108.018C63.216 108.153 63.1084 108.246 62.9689 108.266C62.8279 108.286 62.7004 108.226 62.6244 108.108L59.974 103.975C59.7974 103.699 59.4965 103.535 59.1694 103.535C58.8424 103.535 58.5415 103.7 58.3648 103.975L55.7137 108.108C55.6377 108.226 55.5078 108.286 55.3692 108.266C55.2297 108.246 55.1221 108.153 55.0819 108.018L53.6736 103.298C53.5818 102.99 53.3432 102.75 53.0352 102.657C52.9434 102.629 52.8497 102.615 52.7566 102.615C52.5371 102.615 52.322 102.691 52.1478 102.835L48.3866 105.948C48.2236 106.082 48.0542 106.015 48.0065 105.991C47.9585 105.968 47.803 105.873 47.812 105.662L48.0244 100.782C48.0385 100.461 47.8917 100.157 47.6322 99.9681C47.373 99.7789 47.0382 99.7329 46.7373 99.8443L42.1253 101.553C41.9927 101.602 41.8539 101.571 41.7543 101.471C41.6545 101.371 41.625 101.232 41.6749 101.1L41.8154 100.728L41.3895 101.419C40.6104 101.573 37.5527 102.383 37.4842 105.582C43.254 112.569 50.997 115.568 53.4275 116.375C53.9483 116.549 54.4222 116.841 54.8028 117.236C55.8453 118.319 56.7305 119.343 57.4258 120.193C58.3268 121.295 60.0103 121.295 60.9113 120.193C61.6066 119.343 62.4919 118.319 63.5343 117.236C63.9149 116.841 64.389 116.548 64.9097 116.375C68.628 115.14 84.7828 108.778 87.2788 90.8449C87.3743 90.1641 86.9908 89.5056 86.3558 89.2433V89.2433Z" fill="#42BA9B"/>
<path d="M41.6138 101.748L41.7749 101.486C41.7684 101.481 41.7609 101.477 41.7546 101.471C41.6548 101.371 41.6252 101.232 41.6751 101.1L43.4054 96.5214C43.5212 96.215 43.4735 95.8751 43.2777 95.6124C43.082 95.3498 42.7697 95.2059 42.4431 95.2301L37.5002 95.5831C37.3609 95.5926 37.2388 95.5269 37.1699 95.4065C37.1014 95.2861 37.1077 95.1463 37.1869 95.0327L40.0013 90.9876C40.1922 90.7131 40.2264 90.3662 40.0929 90.0595C39.9592 89.753 39.6818 89.542 39.3508 89.495L34.4352 88.7977C34.2998 88.7786 34.1937 88.6894 34.1511 88.5596C34.1276 88.4876 34.1293 88.4147 34.1501 88.3474L31.9825 89.2435C31.3476 89.5059 30.9641 90.1644 31.0588 90.8449C31.9581 97.3061 34.6308 102.265 37.8556 106.023C37.6085 102.25 41.6138 101.748 41.6138 101.748V101.748Z" fill="#34A086"/>
<path d="M78.3244 85.9232C76.8786 90.4936 72.3623 99.4543 59.1694 99.4543C54.9818 99.4543 51.6713 98.5496 49.0529 97.1712C49.0437 97.2615 49.0308 97.3492 49.0262 97.4432C47.7492 97.7533 46.9626 98.6831 47.1123 100.067L47.0714 100.091C47.4273 100.092 47.74 100.384 47.7233 100.769L47.5108 105.649C47.4861 106.214 48.1439 106.542 48.5804 106.18L52.3416 103.067C52.7024 102.769 53.2506 102.935 53.3846 103.384L54.7929 108.104C54.9528 108.64 55.6675 108.741 55.9691 108.27L58.6202 104.138C58.8772 103.737 59.4633 103.737 59.7203 104.138L62.371 108.27C62.6726 108.741 63.3873 108.64 63.5472 108.104L64.9557 103.384C65.0894 102.935 65.6379 102.769 65.9984 103.067L69.7601 106.18C70.1964 106.541 70.8542 106.214 70.8297 105.649L70.6172 100.769C70.5969 100.302 71.0589 99.965 71.4971 100.127L76.1092 101.836C76.6349 102.031 77.1456 101.516 76.9474 100.992L75.2171 96.4141C75.0485 95.9678 75.3991 95.4971 75.8749 95.5313L80.8178 95.8845C81.3656 95.9235 81.7145 95.3103 81.4007 94.8594L78.5863 90.8138C78.3085 90.4143 78.549 89.8622 79.0309 89.7937L83.947 89.0957C84.283 89.048 84.4933 88.7715 84.5083 88.4786L78.3244 85.9232Z" fill="#DEEEFF"/>
<path d="M49.3962 97.3453C43.5202 94.413 41.0208 89.1054 40.0141 85.9232L33.8318 88.4789C33.8463 88.7723 34.0566 89.0494 34.3931 89.0971L39.3087 89.7944C39.7905 89.8627 40.0314 90.4151 39.7532 90.8146L36.9388 94.8597C36.6251 95.3105 36.974 95.924 37.5217 95.8847L42.4649 95.5317C42.9407 95.4978 43.2913 95.9683 43.1227 96.4146L41.3924 100.993C41.1942 101.517 41.7049 102.031 42.2306 101.836L46.8427 100.128C47.0847 100.038 47.3311 100.104 47.5021 100.257L47.5055 100.255C47.0966 97.9709 49.3814 97.7463 49.3814 97.7463C49.3819 97.6075 49.3869 97.474 49.3962 97.3453V97.3453Z" fill="#A8B7EF"/>
<path d="M69.8296 97.027C66.4847 96.5633 66.6026 93.7773 66.6753 93.1345C64.7464 94.0891 62.292 94.7194 59.1692 94.7194C56.6956 94.7194 54.6407 94.3243 52.9347 93.6859C50.7584 93.8209 49.1449 95.0627 49.026 97.4435C48.9761 97.4556 48.9281 97.4704 48.8799 97.4844C51.5247 98.9143 54.8903 99.8577 59.1694 99.8577C63.8481 99.8577 67.4351 98.7304 70.1814 97.0718C70.0622 97.0578 69.9449 97.043 69.8296 97.027V97.027Z" fill="#FF4155"/>
<path d="M75.0744 84.5799C74.3217 84.2685 73.4687 84.6695 73.2182 85.4445C72.5551 87.4975 70.7999 91.1874 66.4532 93.2399L66.4515 93.2433C66.4515 93.2433 65.8017 96.7448 69.5874 97.2695C69.6567 97.2792 69.7281 97.2874 69.7989 97.2964C75.2801 94.1741 77.5497 88.9467 78.4344 85.969L75.0744 84.5799Z" fill="#FF7186"/>
<path d="M45.1204 85.4445C44.8701 84.6693 44.0169 84.2685 43.2642 84.5799L39.9042 85.9688C40.8333 89.0947 43.2877 94.6998 49.3819 97.7463C49.3819 93.3579 54.1749 94.0871 54.1749 94.0871C54.1751 94.0869 54.1756 94.0864 54.1758 94.0861C48.1259 92.4111 45.8896 87.8257 45.1204 85.4445V85.4445Z" fill="#E80054"/>
<path d="M71.4828 101.949C71.362 102.732 71.6285 103.416 72.3625 103.688C72.151 106.444 73.6448 108.575 76.7582 108.905C76.7696 110.811 77.8169 112.22 79.8694 112.338C80.0663 113.162 80.8263 115.37 83.3587 115.741V118.941C83.5034 118.877 83.6456 118.808 83.7897 118.743L87.1633 117.086C88.481 116.386 89.7684 115.638 91.0245 114.844L99.4976 108.357C100.751 107.206 101.958 106.005 103.108 104.75C98.2135 98.3815 90.5226 94.2681 81.8879 94.2681C77.2771 94.2681 72.935 95.4406 69.144 97.5033C68.6597 99.4535 69.394 101.225 71.4828 101.949V101.949Z" fill="#FFC839"/>
<path d="M96.1569 98.4045C96.1044 98.415 92.5217 99.1454 93.422 102.596C94.0139 104.864 97.2113 107.148 99.3616 108.462L99.4973 108.358C100.751 107.206 101.957 106.005 103.108 104.751C101.185 102.249 98.8301 100.097 96.1569 98.4045V98.4045Z" fill="#FFDD40"/>
<path d="M83.7221 115.416C80.5649 115.171 80.1686 111.983 80.1686 111.983C76.7485 111.983 77.1349 108.571 77.1349 108.571C71.933 108.245 72.7584 103.418 72.7584 103.418C71.4068 103.186 71.9124 101.703 71.9124 101.703C68.3218 100.696 69.5874 97.269 69.5874 97.269C61.0097 101.73 55.1369 110.701 55.1369 121.019C55.1369 121.978 55.1887 122.925 55.2876 123.858C56.6322 123.949 57.9879 123.999 59.3557 123.999C68.04 123.999 76.288 122.133 83.7219 118.781V115.416H83.7221Z" fill="#FFB332"/>
<path d="M72.3625 103.688C72.151 106.444 73.6448 108.575 76.7582 108.905C76.7696 110.811 77.8169 112.22 79.8694 112.338C80.0663 113.162 80.8263 115.37 83.3587 115.741V118.938C83.515 118.869 83.6698 118.796 83.8253 118.726L87.1296 117.103C88.4584 116.398 89.7575 115.644 91.024 114.844L98.7768 108.909C95.004 103.657 88.8485 100.232 81.8882 100.232C78.1386 100.232 74.6241 101.23 71.5865 102.967C71.7261 103.289 71.979 103.545 72.3625 103.688V103.688Z" fill="#FFB332"/>
<path d="M72.4698 122.536C73.881 122.218 75.2731 121.849 76.6443 121.432L80.0157 120.295C81.2714 119.829 82.5081 119.323 83.7221 118.776V115.416C80.5649 115.171 80.1686 111.983 80.1686 111.983C76.7485 111.983 77.1349 108.571 77.1349 108.571C71.933 108.245 72.7584 103.418 72.7584 103.418C72.2586 103.332 72.0137 103.075 71.9022 102.785C65.4652 106.318 61.1008 113.158 61.1008 121.019C61.1008 122.019 61.1756 123.001 61.3123 123.964C63.9922 123.877 66.6257 123.608 69.2041 123.177L72.4698 122.536Z" fill="#FF9433"/>
<path d="M62.8131 112.748C61.9308 114.78 61.3634 116.981 61.1732 119.288H64.9261C65.2372 119.288 65.4894 119.541 65.4894 119.852V122.413C65.4894 122.724 65.7416 122.976 66.0527 122.976H68.6139C68.799 122.976 68.9616 123.067 69.0643 123.204C70.3086 122.999 71.5415 122.76 72.7584 122.48L62.8131 112.748Z" fill="#FFC839"/>
<path d="M86.8665 115.242L84.024 115.282C83.7929 115.285 83.6073 115.473 83.6073 115.704V118.832C84.8606 118.271 86.0898 117.666 87.2951 117.021V115.664C87.2951 115.429 87.1022 115.238 86.8665 115.242V115.242Z" fill="#FFDD40"/>
<path d="M98.8245 108.971C98.6227 108.688 98.4163 108.408 98.2009 108.135H78.3247C77.665 108.135 77.0879 108.483 76.7621 109.003C76.8088 110.859 77.8528 112.222 79.8691 112.338C79.9212 112.556 80.015 112.873 80.1686 113.225V111.983C80.1686 111.895 80.2403 111.823 80.3287 111.823H90.4164C90.7275 111.823 90.9797 112.075 90.9797 112.386V114.878C93.759 113.125 96.382 111.147 98.8245 108.971V108.971Z" fill="#FFDD40"/>
<path d="M80.1686 111.983C76.7485 111.983 77.1349 108.571 77.1349 108.571C76.7352 108.91 76.4808 109.414 76.4808 109.979V121.487C77.7277 121.112 78.9577 120.697 80.1686 120.244V111.983Z" fill="#FFC839"/>
<path d="M81.8879 99.276C78.229 99.276 74.7789 100.186 71.7498 101.789C71.6444 102.198 71.5555 103.103 72.6399 103.484C75.4032 102.021 78.5495 101.188 81.8879 101.188C88.5791 101.188 94.5023 104.522 98.0956 109.613C98.5823 109.194 99.0607 108.765 99.5334 108.33C95.5818 102.85 89.1448 99.276 81.8879 99.276V99.276Z" fill="#FEE884"/>
<path d="M62.057 121.019C62.057 113.376 66.4064 106.733 72.7574 103.424C72.7576 103.422 72.7584 103.418 72.7584 103.418C71.4102 103.187 71.9095 101.711 71.9121 101.703C64.9281 105.325 60.1448 112.624 60.1448 121.019C60.1448 122.026 60.215 123.015 60.348 123.986C60.3749 123.985 60.4016 123.985 60.4285 123.985C60.7126 123.98 60.9968 123.974 61.28 123.965C61.6115 123.955 61.9419 123.941 62.2719 123.925C62.1318 122.976 62.057 122.006 62.057 121.019V121.019Z" fill="#FFDD40"/>
<path d="M21.3005 67.0667C10.1858 59.8071 7.98921 44.8828 7.83828 35.1449C2.85172 43.8348 0 53.906 0 64.6435C0 77.3719 4.01072 89.1611 10.832 98.8251C13.1178 93.4633 17.8841 90.0255 23.7297 86.9492C31.984 82.6051 36.5917 77.0538 21.3005 67.0667Z" fill="#543E5B"/>
<path d="M97.4109 67.0667C108.526 59.8071 110.722 44.8828 110.873 35.1449C115.86 43.8348 118.711 53.906 118.711 64.6435C118.711 77.3719 114.701 89.1611 107.879 98.8251C105.594 93.4633 100.827 90.0255 94.9817 86.9492C86.7274 82.6051 82.1198 77.0538 97.4109 67.0667V67.0667Z" fill="#543E5B"/>
<path d="M93.4196 102.596C93.3927 102.597 91.8737 102.687 92.2417 104.115C92.2417 104.116 92.2419 104.116 92.2419 104.116C94.5451 105.534 96.539 107.408 98.0953 109.613C98.582 109.193 99.0605 108.765 99.5332 108.33C97.887 106.047 95.8083 104.097 93.4196 102.596V102.596Z" fill="#FCF2C8"/>
<path d="M41.5431 47.8981L40.2758 47.4564C39.3145 47.1216 38.8021 46.061 39.1369 45.0997L40.6455 40.7691C40.9585 39.8706 41.9058 39.3645 42.8131 39.5757L44.9598 42.0582C43.8277 43.9179 42.8763 46.0784 41.5431 47.8981V47.8981Z" fill="#1E9EF4"/>
<path d="M77.164 47.8981L78.4313 47.4564C79.3926 47.1216 79.905 46.061 79.5702 45.0997L78.0616 40.7691C77.7486 39.8706 76.8013 39.3645 75.8938 39.5757L73.7471 42.0582C74.8794 43.9179 75.831 46.0784 77.164 47.8981V47.8981Z" fill="#49B1F7"/>
<path d="M44.8733 42.2012L41.9826 38.8579C41.3168 38.088 41.4021 36.9132 42.172 36.2472L45.6408 33.2477C46.2019 32.7627 46.9769 32.6782 47.6141 32.9645L49.1614 38.127C47.2245 38.815 45.9695 40.3721 44.8733 42.2012V42.2012Z" fill="#49B1F7"/>
<path d="M73.834 42.2012L76.7248 38.8579C77.3905 38.088 77.3052 36.9132 76.5353 36.2472L73.0665 33.2477C72.5057 32.7627 71.7304 32.6782 71.0933 32.9645L69.5459 38.127C71.4826 38.815 72.7378 40.3721 73.834 42.2012V42.2012Z" fill="#73C3F9"/>
<path d="M55.1914 38.6086C53.8807 37.8932 52.0325 37.3745 49.7157 37.9596C49.4567 38.025 49.2099 38.1059 48.9729 38.1992L47.3856 32.9032C47.0934 31.9281 47.6521 30.8912 48.6272 30.5988L53.02 29.2821C53.8849 29.0229 54.7972 29.434 55.1967 30.2105C55.1953 30.2419 55.1919 30.2727 55.1919 30.3045V38.6086H55.1914Z" fill="#73C3F9"/>
<path d="M63.5157 38.6086C64.8266 37.8932 66.6746 37.3745 68.9916 37.9596C69.2506 38.025 69.4975 38.1059 69.7344 38.1992L71.3217 32.9032C71.6142 31.9281 71.0555 30.8912 70.0804 30.5988L65.6876 29.2821C64.8227 29.0229 63.9103 29.434 63.5108 30.2105C63.5123 30.2419 63.5157 30.2727 63.5157 30.3045V38.6086Z" fill="#9BD8F9"/>
<path d="M61.7728 28.3515H60.0617C59.5592 28.7835 59.2385 29.4216 59.2385 30.1322V35.1764H59.9389C60.5467 35.1764 61.0414 35.6711 61.0414 36.279V40.7122L61.32 40.3781C61.5737 40.0741 62.3979 39.1707 63.726 38.4981V30.3047C63.7257 29.2302 62.8468 28.3515 61.7728 28.3515V28.3515Z" fill="#D0F0FC"/>
<path d="M59.4807 30.3745C59.4807 29.5149 59.9498 28.7612 60.6434 28.3515H56.9343C55.8603 28.3515 54.9814 29.2302 54.9814 30.3045V38.4979C56.3095 39.1704 57.1336 40.0738 57.3873 40.3779L57.6659 40.712V36.2787C57.6659 35.6709 58.1606 35.1762 58.7685 35.1762H59.4807V30.3745Z" fill="#9BD8F9"/>
<path d="M71.4133 38.9938C70.7323 38.454 69.9539 38.0398 69.0301 37.8067C63.9484 36.5239 61.0937 40.4086 61.0937 40.4086V43.6616C62.5587 44.2079 63.6201 45.3584 64.2696 46.2649C64.5002 46.5867 64.7835 46.8575 65.1032 47.0727C64.6068 46.3977 64.3447 45.5401 64.4402 44.6207C64.6146 42.9384 65.9982 41.6035 67.6853 41.485C68.3586 41.4378 68.994 41.5839 69.5464 41.8695C69.5462 41.8683 69.5459 41.8668 69.5457 41.8656C68.964 39.1738 71.3467 38.9982 71.4133 38.9938V38.9938Z" fill="#FFDD40"/>
<path d="M81.4584 51.1394C75.7971 49.0394 75.2082 41.6454 71.1001 38.7588C70.6967 38.8087 68.7743 39.1758 69.3034 41.6234C69.3138 41.6711 69.3192 41.7191 69.3267 41.7668C70.5765 42.3068 71.4555 43.5477 71.4555 44.9935C71.4555 45.474 71.3583 45.9323 71.1832 46.35C72.2816 47.8993 74.2536 50.2403 76.7928 51.3986C79.1595 52.4781 80.6521 52.277 81.4746 51.9345C81.8351 51.7845 81.8245 51.275 81.4584 51.1394V51.1394Z" fill="#FEE884"/>
<path d="M47.5239 46.35C47.3054 45.8291 47.2083 45.2453 47.2698 44.6335C47.4391 42.9442 48.8285 41.6009 50.5225 41.4848C52.573 41.3443 54.2865 42.9726 54.2865 44.9938C54.2865 45.7686 54.0341 46.4854 53.608 47.0673C53.9285 46.8505 54.2127 46.5785 54.4438 46.2567C55.094 45.3516 56.1532 44.2067 57.6136 43.6621V40.4091C57.6136 40.4091 54.759 36.5242 49.6772 37.8072C43.5607 39.3514 43.7436 48.7305 37.2487 51.1398C36.8826 51.2755 36.872 51.785 37.2325 51.935C38.0549 52.2773 39.5473 52.4786 41.9142 51.3991C44.4534 50.2401 46.4255 47.8993 47.5239 46.35V46.35Z" fill="#FFDD40"/>
<path d="M66.6034 47.6275C67.6923 47.7597 68.6047 48.0284 69.3705 48.379C70.6885 47.8205 71.6132 46.5152 71.6132 44.9938C71.6132 42.9641 69.9677 41.3188 67.9383 41.3188C65.9085 41.3188 64.2633 42.9641 64.2633 44.9938C64.2633 45.6406 64.4312 46.2482 64.7246 46.7761C65.2401 47.2459 65.8957 47.5415 66.6034 47.6275V47.6275Z" fill="#543E5B"/>
<path d="M49.3368 48.379C50.1026 48.0284 51.015 47.7597 52.104 47.6275C52.8119 47.5415 53.4691 47.2418 53.9864 46.7701C54.2778 46.2434 54.444 45.638 54.444 44.9935C54.444 42.9638 52.7988 41.3186 50.7691 41.3186C48.7396 41.3186 47.0941 42.9638 47.0941 44.9935C47.0941 46.515 48.0186 47.8205 49.3368 48.379Z" fill="#543E5B"/>
<path d="M59.3538 43.3457C60.0283 43.3457 60.6434 43.4804 61.1989 43.7011V36.2785C61.1989 35.5856 60.632 35.0185 59.9389 35.0185H58.7685C58.0753 35.0185 57.5084 35.5854 57.5084 36.2785V43.7011C58.064 43.4804 58.6791 43.3457 59.3538 43.3457Z" fill="#FF4155"/>
<path d="M66.6034 47.4174C65.7615 47.3152 64.9935 46.9157 64.4472 46.2793C63.7424 46.3224 63.2453 46.7088 63.2124 47.5386L61.6519 48.7714C60.2259 48.8163 59.1692 49.7328 59.1692 51.3324V56.5487C59.2268 57.1342 59.5265 57.7934 60.0416 58.1409C60.3122 58.3233 60.5881 58.4035 60.8699 58.4216C62.3969 55.6336 65.1439 52.4168 69.4103 53.4983C70.1707 53.6911 70.9571 53.7173 71.7137 53.5751C72.0391 52.7407 72.4924 52.2201 73.0009 52.0244C72.4548 50.564 70.8883 47.9381 66.6034 47.4174V47.4174Z" fill="#FFDD40"/>
<path d="M64.6124 46.4593C64.4886 46.335 64.3738 46.2003 64.2696 46.0549C63.3861 44.8218 61.7413 43.1356 59.3535 43.1356C56.9713 43.1356 55.3285 44.8138 54.4435 46.0462C53.8921 46.8139 53.042 47.3033 52.1037 47.4172C47.8304 47.9364 46.261 50.5492 45.711 52.012C46.2028 52.1956 46.6537 52.6976 46.9941 53.5751C47.7504 53.7173 48.5366 53.6909 49.2968 53.4983C53.7056 52.3807 56.4921 55.8531 57.9864 58.6993C58.5671 59.8055 60.1402 59.8055 60.7209 58.6993C60.7999 58.5486 60.8835 58.396 60.9699 58.2426C59.5038 58.1883 59.3526 56.5484 59.3526 56.5484C59.3526 56.5484 59.3526 53.7566 59.3526 51.3322C59.3526 48.9078 61.7169 48.9536 61.7169 48.9536L63.3941 47.6284C63.3941 46.6577 64.0385 46.451 64.6124 46.4593V46.4593Z" fill="#FFC839"/>
<path d="M56.5367 49.1118C56.3201 49.1118 56.1057 49.0164 55.9611 48.8332L55.471 48.213C55.2202 47.8954 55.2743 47.4346 55.5919 47.1836C55.9095 46.9326 56.3703 46.9867 56.6213 47.3045L57.1114 47.9247C57.3621 48.2423 57.3081 48.7031 56.9905 48.9541C56.856 49.0602 56.6956 49.1118 56.5367 49.1118Z" fill="#FFB332"/>
<path d="M62.1706 49.1118C62.0114 49.1118 61.8513 49.0602 61.7169 48.9541C61.3992 48.7031 61.3452 48.2423 61.596 47.9247L62.0858 47.3045C62.3368 46.9869 62.7976 46.9326 63.1152 47.1836C63.4328 47.4346 63.4868 47.8954 63.2361 48.213L62.7462 48.8332C62.6016 49.0161 62.387 49.1118 62.1706 49.1118V49.1118Z" fill="#FFB332"/>
<path d="M74.6443 62.7517C76.1808 62.566 77.1299 59.9614 76.7641 56.9341C76.3982 53.9068 74.856 51.6032 73.3195 51.7889C71.7829 51.9746 70.8338 54.5792 71.1997 57.6065C71.5655 60.6338 73.1077 62.9374 74.6443 62.7517Z" fill="#9BD8F9"/>
<path d="M69.5329 46.0228C70.3198 45.2359 70.3198 43.96 69.5329 43.173C68.7459 42.3861 67.47 42.3861 66.6831 43.173C65.8961 43.96 65.8961 45.2359 66.6831 46.0228C67.47 46.8098 68.7459 46.8098 69.5329 46.0228Z" fill="#6C5475"/>
<path d="M52.5725 45.0827C52.8296 43.9997 52.1601 42.9133 51.0771 42.6562C49.9941 42.3991 48.9076 43.0686 48.6505 44.1516C48.3934 45.2347 49.0629 46.3211 50.146 46.5782C51.229 46.8353 52.3154 46.1658 52.5725 45.0827Z" fill="#6C5475"/>
<path d="M76.7458 59.3902C75.9662 57.3913 74.6166 54.4959 73.4687 54.9073C71.7401 55.5265 71.4177 53.9618 71.4167 53.9564C71.1146 54.9655 71.0121 56.2417 71.1766 57.6042C71.542 60.6309 73.0837 62.9341 74.6199 62.7487C75.7145 62.6167 76.5106 61.2561 76.7458 59.3902V59.3902Z" fill="#73C3F9"/>
<path d="M75.7389 60.9116C76.8037 60.7829 77.4613 58.9781 77.2079 56.8805C76.9544 54.7829 75.8857 53.1867 74.8209 53.3154C73.7562 53.444 73.0985 55.2488 73.352 57.3465C73.6055 59.4441 74.6741 61.0403 75.7389 60.9116Z" fill="#1E9EF4"/>
<path d="M41.9772 56.9327C41.6119 59.9593 42.5611 62.5634 44.0973 62.7488C45.6335 62.9343 47.1753 60.6309 47.5406 57.6042C47.906 54.5776 46.957 51.9735 45.4206 51.7882C43.8844 51.6028 42.3428 53.906 41.9772 56.9327V56.9327Z" fill="#9BD8F9"/>
<path d="M41.9712 59.3902C42.7508 57.3913 44.1005 54.4959 45.2483 54.9073C46.9769 55.5265 47.2993 53.9618 47.3003 53.9564C47.6024 54.9655 47.7049 56.2417 47.5404 57.6042C47.1751 60.6309 45.6333 62.9341 44.0971 62.7487C43.0027 62.6167 42.2067 61.2561 41.9712 59.3902V59.3902Z" fill="#73C3F9"/>
<path d="M45.4074 57.3428C45.6609 55.2451 45.0032 53.4403 43.9384 53.3117C42.8737 53.183 41.805 54.7792 41.5515 56.8768C41.298 58.9744 41.9557 60.7792 43.0205 60.9079C44.0852 61.0366 45.1539 59.4404 45.4074 57.3428Z" fill="#1E9EF4"/>
</svg>
